<?xml version="1.0" encoding="UTF-8"?>
<svg xmlns="http://www.w3.org/2000/svg" viewBox="0 0 400 50">
  <defs>
    <style>
      .cls-1 {
        fill: #999;
      }

      .cls-1, .cls-2, .cls-3 {
        stroke-width: 0px;
      }

      .cls-2 {
        fill: #2a2a2a;
      }

      .cls-3 {
        fill: #08df55;
      }
    </style>
  </defs>
  <g id="base">
    <g id="r3">
      <rect class="cls-2" width="400" height="50"/>
    </g>
  </g>
  <g id="Meters">
    <g id="_3" data-name="3">
      <g id="_1" data-name="1">
        <rect class="cls-3" x="5.84" y="6.7" width="17.73" height="36.61"/>
      </g>
      <g id="_2" data-name="2">
        <rect class="cls-3" x="25.34" y="6.7" width="17.73" height="36.61"/>
      </g>
      <g id="_3-2" data-name="3">
        <rect class="cls-3" x="44.85" y="6.7" width="17.73" height="36.61"/>
      </g>
      <g id="_4" data-name="4">
        <rect class="cls-1" x="64.35" y="6.7" width="17.73" height="36.61"/>
      </g>
      <g id="_5" data-name="5">
        <rect class="cls-1" x="83.86" y="6.7" width="17.73" height="36.61"/>
      </g>
      <g id="_6" data-name="6">
        <rect class="cls-1" x="103.36" y="6.7" width="17.73" height="36.61"/>
      </g>
      <g id="_7" data-name="7">
        <rect class="cls-1" x="122.87" y="6.7" width="17.73" height="36.61"/>
      </g>
      <g id="_8" data-name="8">
        <rect class="cls-1" x="142.37" y="6.7" width="17.73" height="36.61"/>
      </g>
      <g id="_9" data-name="9">
        <rect class="cls-1" x="161.88" y="6.7" width="17.73" height="36.61"/>
      </g>
      <g id="_10" data-name="10">
        <rect class="cls-1" x="181.38" y="6.7" width="17.73" height="36.61"/>
      </g>
      <g id="_11" data-name="11">
        <rect class="cls-1" x="200.89" y="6.7" width="17.73" height="36.61"/>
      </g>
      <g id="_12" data-name="12">
        <rect class="cls-1" x="220.39" y="6.7" width="17.73" height="36.61"/>
      </g>
      <g id="_13" data-name="13">
        <rect class="cls-1" x="239.9" y="6.7" width="17.73" height="36.61"/>
      </g>
      <g id="_14" data-name="14">
        <rect class="cls-1" x="259.4" y="6.7" width="17.73" height="36.61"/>
      </g>
      <g id="_15" data-name="15">
        <rect class="cls-1" x="278.91" y="6.7" width="17.73" height="36.61"/>
      </g>
      <g id="_16" data-name="16">
        <rect class="cls-1" x="298.41" y="6.7" width="17.73" height="36.61"/>
      </g>
      <g id="_17" data-name="17">
        <rect class="cls-1" x="317.92" y="6.7" width="17.73" height="36.61"/>
      </g>
      <g id="_18" data-name="18">
        <rect class="cls-1" x="337.42" y="6.7" width="17.73" height="36.61"/>
      </g>
      <g id="_19" data-name="19">
        <rect class="cls-1" x="356.93" y="6.7" width="17.73" height="36.61"/>
      </g>
      <g id="_20" data-name="20">
        <rect class="cls-1" x="376.43" y="6.7" width="17.73" height="36.61"/>
      </g>
    </g>
  </g>
</svg>