<?xml version="1.0" encoding="UTF-8"?>
<svg xmlns="http://www.w3.org/2000/svg" viewBox="0 0 50 400">
  <defs>
    <style>
      .cls-1 {
        fill: #999;
      }

      .cls-1, .cls-2, .cls-3, .cls-4 {
        stroke-width: 0px;
      }

      .cls-2 {
        fill: #fcce07;
      }

      .cls-3 {
        fill: #2a2a2a;
      }

      .cls-4 {
        fill: #08df55;
      }
    </style>
  </defs>
  <g id="Base">
    <g id="r16">
      <rect class="cls-3" y="0" width="50" height="400"/>
    </g>
  </g>
  <g id="Meter">
    <g id="_16" data-name="16">
      <g id="_1" data-name="1">
        <rect class="cls-4" x="6.65" y="375.95" width="36.61" height="17.73"/>
      </g>
      <g id="_2" data-name="2">
        <rect class="cls-4" x="6.65" y="356.45" width="36.61" height="17.73"/>
      </g>
      <g id="_3" data-name="3">
        <rect class="cls-4" x="6.65" y="336.94" width="36.61" height="17.73"/>
      </g>
      <g id="_4" data-name="4">
        <rect class="cls-4" x="6.65" y="317.44" width="36.61" height="17.73"/>
      </g>
      <g id="_5" data-name="5">
        <rect class="cls-4" x="6.65" y="297.93" width="36.61" height="17.73"/>
      </g>
      <g id="_6" data-name="6">
        <rect class="cls-4" x="6.65" y="278.43" width="36.61" height="17.73"/>
      </g>
      <g id="_7" data-name="7">
        <rect class="cls-4" x="6.65" y="258.92" width="36.61" height="17.73"/>
      </g>
      <g id="_8" data-name="8">
        <rect class="cls-4" x="6.65" y="239.42" width="36.61" height="17.73"/>
      </g>
      <g id="_9" data-name="9">
        <rect class="cls-4" x="6.65" y="219.91" width="36.61" height="17.73"/>
      </g>
      <g id="_10" data-name="10">
        <rect class="cls-4" x="6.65" y="200.41" width="36.61" height="17.73"/>
      </g>
      <g id="_11" data-name="11">
        <rect class="cls-4" x="6.65" y="180.9" width="36.61" height="17.73"/>
      </g>
      <g id="_12" data-name="12">
        <rect class="cls-4" x="6.65" y="161.4" width="36.61" height="17.73"/>
      </g>
      <g id="_13" data-name="13">
        <rect class="cls-2" x="6.65" y="141.89" width="36.61" height="17.73"/>
      </g>
      <g id="_14" data-name="14">
        <rect class="cls-2" x="6.65" y="122.39" width="36.61" height="17.73"/>
      </g>
      <g id="_15" data-name="15">
        <rect class="cls-2" x="6.65" y="102.88" width="36.61" height="17.73"/>
      </g>
      <g id="_16-2" data-name="16">
        <rect class="cls-2" x="6.65" y="83.38" width="36.61" height="17.73"/>
      </g>
      <g id="_17" data-name="17">
        <rect class="cls-1" x="6.65" y="63.87" width="36.61" height="17.73"/>
      </g>
      <g id="_18" data-name="18">
        <rect class="cls-1" x="6.65" y="44.37" width="36.61" height="17.73"/>
      </g>
      <g id="_19" data-name="19">
        <rect class="cls-1" x="6.65" y="24.86" width="36.61" height="17.73"/>
      </g>
      <g id="_20" data-name="20">
        <rect class="cls-1" x="6.65" y="5.36" width="36.61" height="17.73"/>
      </g>
    </g>
  </g>
</svg>