<?xml version="1.0" encoding="utf-8"?>
<!-- Generator: Adobe Illustrator 27.8.1, SVG Export Plug-In . SVG Version: 6.00 Build 0)  -->
<svg version="1.1" id="Layer_1" xmlns="http://www.w3.org/2000/svg" xmlns:xlink="http://www.w3.org/1999/xlink" x="0px" y="0px"
	 viewBox="0 0 64.2 64.2" style="enable-background:new 0 0 64.2 64.2;" xml:space="preserve">
<style type="text/css">
	.st0{fill-rule:evenodd;clip-rule:evenodd;fill:#F7F7FC;}
</style>
<g id="Layer_2_00000107566007349122261610000014942157685348311692_">
	<g id="Layer_6_Image">
		<g id="Shape_3">
			<path class="st0" d="M62.2,53.3l-9-9c3-4.6,4.5-9.9,4.5-15.4C57.7,12.9,44.8,0,28.8,0S0,12.9,0,28.9s12.9,28.9,28.9,28.9
				c0,0,0,0,0,0c5.5,0,10.8-1.5,15.4-4.5l9,9c2.5,2.5,6.5,2.5,9,0C64.8,59.8,64.8,55.7,62.2,53.3L62.2,53.3L62.2,53.3z M28.9,51.3
				C16.5,51.4,6.5,41.5,6.4,29.2c0-0.1,0-0.2,0-0.3C6.3,16.5,16.3,6.5,28.6,6.4c0.1,0,0.2,0,0.3,0c12.4-0.3,22.7,9.6,22.9,22
				s-9.6,22.7-22,22.9C29.5,51.3,29.2,51.3,28.9,51.3z M41.7,25.7h-9.6V16c0.1-1.7-1.1-3.1-2.8-3.2c-0.1,0-0.3,0-0.4,0
				c-1.8,0-3.2,1.4-3.2,3.2v9.6H16c-1.8,0-3.2,1.4-3.2,3.2c-0.1,1.7,1.1,3.1,2.7,3.2c0.2,0,0.3,0,0.5,0h9.6v9.6
				c-0.1,1.7,1.1,3.1,2.8,3.2c0.1,0,0.3,0,0.4,0c1.7,0.1,3.1-1.1,3.2-2.8c0-0.1,0-0.3,0-0.4v-9.6h9.6c1.7,0.1,3.1-1.1,3.2-2.8
				c0-0.1,0-0.3,0-0.4C44.9,27.1,43.5,25.7,41.7,25.7z"/>
		</g>
	</g>
</g>
</svg>
