<svg xmlns="http://www.w3.org/2000/svg" viewBox="0 0 64.17 64.17"><defs><style>.cls-1{fill:#424241;fill-rule:evenodd;}</style></defs><g id="Layer_2" data-name="Layer 2"><g id="Layer_6_Image" data-name="Layer 6 Image"><g id="Shape_3_copy" data-name="Shape 3 copy"><path class="cls-1" d="M62.24,53.26l-9-9a27.93,27.93,0,0,0,4.49-15.4A28.88,28.88,0,1,0,28.87,57.75a27.93,27.93,0,0,0,15.4-4.49l9,9a6.35,6.35,0,0,0,9-9ZM28.87,51.33A22.31,22.31,0,0,1,6.42,28.87,22.31,22.31,0,0,1,28.87,6.42a22.46,22.46,0,1,1,0,44.91ZM41.71,25.67H16a3.22,3.22,0,0,0-3.21,3.2A3,3,0,0,0,16,32.08H41.71a3,3,0,0,0,3.21-3.21A3.22,3.22,0,0,0,41.71,25.67Z"/></g></g></g></svg>