<?xml version="1.0" encoding="UTF-8" standalone="no"?>
<!DOCTYPE svg PUBLIC "-//W3C//DTD SVG 1.1//EN" "http://www.w3.org/Graphics/SVG/1.1/DTD/svg11.dtd">
<svg width="100%" height="100%" viewBox="0 0 144 144" version="1.1" xmlns="http://www.w3.org/2000/svg" xmlns:xlink="http://www.w3.org/1999/xlink" xml:space="preserve" xmlns:serif="http://www.serif.com/" style="fill-rule:evenodd;clip-rule:evenodd;stroke-linejoin:round;stroke-miterlimit:2;">
    <g transform="matrix(1,0,0,1,-172.986,-185.494)">
        <g transform="matrix(1,0,0,1,172.986,185.494)">
            <rect x="0" y="0" width="143.993" height="143.998" style="fill:none;"/>
            <clipPath>
                <rect x="0" y="0" width="143.993" height="143.998"/>
            </clipPath>
            <g>
                <g id="Secondary Colour" style="fill:rgb(17, 177, 209)" transform="matrix(4.16667,0,0,4.16667,-1221.93,-1417.16)">
                    <path d="M327.506,352.246C327.081,349.037 325.945,346.128 323.942,343.999L323.941,343.999C321.812,341.996 318.904,340.86 315.695,340.435C312.63,340.029 310.543,340.129 310.543,340.129C310.543,340.129 308.456,340.029 305.391,340.435C302.182,340.86 299.274,341.996 297.144,343.999C295.141,346.128 294.005,349.037 293.581,352.246C293.174,355.311 293.274,357.398 293.274,357.398C293.274,357.398 293.174,359.485 293.581,362.55C294.005,365.758 295.141,368.666 297.144,370.797C299.274,372.8 302.182,373.935 305.391,374.361C308.456,374.767 310.543,374.667 310.543,374.667C310.543,374.667 312.63,374.767 315.695,374.361C318.904,373.935 321.812,372.8 323.941,370.797L323.942,370.797C325.945,368.666 327.081,365.758 327.506,362.55C327.911,359.485 327.811,357.398 327.811,357.398C327.811,357.398 327.911,355.311 327.506,352.246"/>
                </g>
                <g id="Primary Colour" style="fill:rgb(245, 187, 2)" transform="matrix(1.4379,0,0,1.4379,104.528,61.8616)">
                    <path d="M0,15.765C-0.063,16.402 -0.423,16.951 -0.986,17.27C-1.561,17.597 -2.235,17.624 -2.829,17.343L-8.027,14.902C-7.213,10.328 -7.213,5.705 -8.027,1.132L-2.829,-1.31C-2.234,-1.591 -1.561,-1.563 -0.986,-1.237C-0.423,-0.917 -0.063,-0.368 0,0.269C0.509,5.41 0.509,10.624 0,15.765M-16.475,21.548L-16.476,21.548C-21.428,22.564 -26.45,22.564 -31.401,21.548C-34.46,20.92 -36.842,18.538 -37.47,15.48C-38.485,10.527 -38.485,5.506 -37.47,0.554C-36.842,-2.505 -34.46,-4.886 -31.401,-5.514C-28.925,-6.022 -26.432,-6.276 -23.939,-6.276C-21.445,-6.276 -18.952,-6.022 -16.475,-5.514C-13.417,-4.887 -11.035,-2.505 -10.408,0.554C-9.392,5.506 -9.392,10.527 -10.408,15.48C-11.035,18.538 -13.417,20.92 -16.475,21.548M0.115,-3.176C-1.08,-3.855 -2.535,-3.912 -3.778,-3.329L-8.551,-1.087C-9.681,-4.437 -12.502,-6.975 -16.027,-7.699C-21.278,-8.775 -26.6,-8.775 -31.85,-7.699C-35.784,-6.892 -38.847,-3.828 -39.654,0.106C-40.731,5.355 -40.731,10.678 -39.654,15.927C-38.847,19.862 -35.784,22.925 -31.85,23.732C-29.225,24.271 -26.582,24.54 -23.939,24.54C-21.295,24.54 -18.652,24.271 -16.027,23.732L-16.028,23.732C-12.502,23.009 -9.681,20.471 -8.551,17.12L-3.778,19.362C-3.208,19.63 -2.594,19.763 -1.98,19.763C-1.256,19.763 -0.532,19.578 0.115,19.21C1.317,18.528 2.084,17.353 2.219,15.985C2.743,10.698 2.743,5.336 2.219,0.049C2.084,-1.319 1.317,-2.494 0.115,-3.176"/>
                </g>
                <g id="Highlight Colour" style="fill:rgb(255,255,255)" transform="matrix(1.4379,0,0,1.4379,76.7172,80.1022)">
                    <path d="M-8.38,4.85C-11.669,4.85 -14.345,2.174 -14.345,-1.115C-14.345,-1.731 -14.844,-2.23 -15.46,-2.23C-16.076,-2.23 -16.575,-1.731 -16.575,-1.115C-16.575,3.404 -12.899,7.08 -8.38,7.08C-7.764,7.08 -7.265,6.581 -7.265,5.965C-7.265,5.349 -7.764,4.85 -8.38,4.85"/>
                </g>
            </g>
        </g>
    </g>
</svg>
