<?xml version="1.0" encoding="UTF-8" standalone="no"?>
<!DOCTYPE svg PUBLIC "-//W3C//DTD SVG 1.1//EN" "http://www.w3.org/Graphics/SVG/1.1/DTD/svg11.dtd">
<svg width="100%" height="100%" viewBox="0 0 144 144" version="1.1" xmlns="http://www.w3.org/2000/svg" xmlns:xlink="http://www.w3.org/1999/xlink" xml:space="preserve" xmlns:serif="http://www.serif.com/" style="fill-rule:evenodd;clip-rule:evenodd;stroke-linejoin:round;stroke-miterlimit:2;">
    <rect x="0" y="0" width="143.993" height="143.998" style="fill:none;"/>
    <clipPath>
        <rect x="0" y="0" width="143.993" height="143.998"/>
    </clipPath>
    <g>
        <g id="PrimaryColour" style="fill:rgb(0, 118, 191)" transform="matrix(4.16667,0,0,4.16667,-128.453,-1417.16)">
            <path d="M65.07,352.245C64.645,349.037 63.509,346.129 61.507,343.998L61.506,343.998C59.376,341.996 56.468,340.86 53.259,340.435C50.195,340.029 48.108,340.128 48.108,340.128C48.108,340.128 46.021,340.029 42.956,340.435C39.747,340.86 36.839,341.996 34.71,343.998L34.709,343.998C32.707,346.129 31.571,349.037 31.146,352.245C30.74,355.31 30.84,357.398 30.84,357.398C30.84,357.398 30.74,359.484 31.146,362.549C31.571,365.758 32.707,368.666 34.709,370.796L34.71,370.796C36.839,372.799 39.747,373.935 42.956,374.36C46.021,374.766 48.108,374.666 48.108,374.666C48.108,374.666 50.195,374.766 53.259,374.36C56.468,373.935 59.376,372.799 61.506,370.796L61.507,370.796C63.509,368.666 64.645,365.758 65.07,362.549C65.476,359.484 65.376,357.398 65.376,357.398C65.376,357.398 65.476,355.31 65.07,352.245"/>
        </g>
        <path id="IconColour" style="fill:rgb(255, 255, 255)" d="M101.04,41.007L100.993,41.007L44.444,41.007C36.496,41.007 30.054,47.448 30.054,55.398L30.054,88.978C30.054,96.923 36.496,103.365 44.444,103.365L99.978,103.365C107.926,103.365 114.368,96.923 114.368,88.978L114.368,55.398C114.368,47.464 108.963,41.033 101.04,41.007ZM97.665,57.153C95.527,57.153 93.795,55.42 93.795,53.284C93.795,51.145 95.527,49.412 97.665,49.412C99.802,49.412 101.535,51.145 101.535,53.284C101.535,55.42 99.802,57.153 97.665,57.153Z"/>
        <g id="HighlightColour" style="fill:rgb(0, 0, 0)" transform="matrix(4.16667,0,0,4.16667,-128.453,-1416.78)">
            <path d="M48.159,360.807C46.253,360.807 44.706,359.261 44.706,357.353C44.706,355.446 46.253,353.899 48.159,353.899C50.067,353.899 51.613,355.446 51.613,357.353C51.613,359.261 50.067,360.807 48.159,360.807" />
        </g>
    </g>
</svg>
