<?xml version="1.0" encoding="UTF-8" standalone="no"?>
<!DOCTYPE svg PUBLIC "-//W3C//DTD SVG 1.1//EN" "http://www.w3.org/Graphics/SVG/1.1/DTD/svg11.dtd">
<svg width="100%" height="100%" viewBox="0 0 144 144" version="1.1" xmlns="http://www.w3.org/2000/svg" xmlns:xlink="http://www.w3.org/1999/xlink" xml:space="preserve" xmlns:serif="http://www.serif.com/" style="fill-rule:evenodd;clip-rule:evenodd;stroke-linejoin:round;stroke-miterlimit:2;">
    <g transform="matrix(1,0,0,1,-172.986,0)">
        <g transform="matrix(1,0,0,1,172.986,0)">
            <rect x="0" y="0" width="143.993" height="143.998" style="fill:none;"/>
            <clipPath>
                <rect x="0" y="0" width="143.993" height="143.998"/>
            </clipPath>
            <g>
                <g id="SecondaryColour" style="fill:rgb(0, 118, 191)" transform="matrix(4.16667,0,0,4.16667,-1221.93,-1417.16)">
                    <path d="M327.506,352.246C327.081,349.037 325.945,346.128 323.942,343.999L323.941,343.999C321.812,341.996 318.904,340.86 315.695,340.435C312.63,340.029 310.543,340.129 310.543,340.129C310.543,340.129 308.456,340.029 305.391,340.435C302.182,340.86 299.274,341.996 297.144,343.999C295.141,346.128 294.005,349.037 293.581,352.246C293.174,355.311 293.274,357.398 293.274,357.398C293.274,357.398 293.174,359.485 293.581,362.55C294.005,365.758 295.141,368.666 297.144,370.797C299.274,372.8 302.182,373.935 305.391,374.361C308.456,374.767 310.543,374.667 310.543,374.667C310.543,374.667 312.63,374.767 315.695,374.361C318.904,373.935 321.812,372.8 323.941,370.797L323.942,370.797C325.945,368.666 327.081,365.758 327.506,362.55C327.911,359.485 327.811,357.398 327.811,357.398C327.811,357.398 327.911,355.311 327.506,352.246"/>
                </g>
                <g id="PrimaryColour" style="fill:rgb(255, 255, 255)" transform="matrix(4.16667,0,0,4.16667,-1221.93,-1407.9)">
                    <path d="M317.246,347.158L303.856,347.158C301.941,347.158 300.388,348.711 300.388,350.626L300.388,358.478C300.388,360.394 301.941,361.947 303.856,361.947L304.55,361.947L304.55,365.416L308.019,361.947L317.246,361.947C319.162,361.947 320.715,360.394 320.715,358.478L320.715,350.626C320.715,348.711 319.162,347.158 317.246,347.158"/>
                </g>
                <g id="HighlightColour" style="fill:rgb(0, 0, 0)" transform="matrix(1,0,0,1,-172.986,0)">
                    <path d="M222.185,76.628C217.773,76.628 214.194,73.049 214.194,68.637C214.194,64.22 217.773,60.645 222.185,60.645C226.602,60.645 230.177,64.22 230.177,68.637C230.177,73.049 226.602,76.628 222.185,76.628ZM245.019,76.628C240.606,76.628 237.027,73.049 237.027,68.637C237.027,64.22 240.606,60.645 245.019,60.645C249.435,60.645 253.01,64.22 253.01,68.637C253.01,73.049 249.435,76.628 245.019,76.628ZM267.852,76.628C263.439,76.628 259.86,73.049 259.86,68.637C259.86,64.22 263.439,60.645 267.852,60.645C272.269,60.645 275.848,64.22 275.848,68.637C275.848,73.049 272.269,76.628 267.852,76.628Z"/>
                </g>
            </g>
        </g>
    </g>
</svg>
