<?xml version="1.0" encoding="UTF-8" standalone="no"?>
<!DOCTYPE svg PUBLIC "-//W3C//DTD SVG 1.1//EN" "http://www.w3.org/Graphics/SVG/1.1/DTD/svg11.dtd">
<svg width="100%" height="100%" viewBox="0 0 144 144" version="1.1" xmlns="http://www.w3.org/2000/svg" xmlns:xlink="http://www.w3.org/1999/xlink" xml:space="preserve" xmlns:serif="http://www.serif.com/" style="fill-rule:evenodd;clip-rule:evenodd;stroke-linejoin:round;stroke-miterlimit:2;">
    <g transform="matrix(1,0,0,1,0,-185.494)">
        <g transform="matrix(1,0,0,1,0,185.494)">
            <rect x="0" y="0" width="143.993" height="143.998" style="fill:none;"/>
            <clipPath>
                <rect x="0" y="0" width="143.993" height="143.998"/>
            </clipPath>
            <g>
                <g id="PrimaryColour" style="fill:rgb(105, 105, 105)" transform="matrix(4.16667,0,0,4.16667,-128.453,-1417.16)">
                    <path d="M65.07,352.245C64.645,349.037 63.509,346.129 61.507,343.998L61.506,343.998C59.376,341.996 56.468,340.86 53.259,340.435C50.195,340.029 48.108,340.128 48.108,340.128C48.108,340.128 46.021,340.029 42.956,340.435C39.747,340.86 36.839,341.996 34.71,343.998L34.709,343.998C32.707,346.129 31.571,349.037 31.146,352.245C30.74,355.31 30.84,357.398 30.84,357.398C30.84,357.398 30.74,359.484 31.146,362.549C31.571,365.758 32.707,368.666 34.709,370.796L34.71,370.796C36.839,372.799 39.747,373.935 42.956,374.36C46.021,374.766 48.108,374.666 48.108,374.666C48.108,374.666 50.195,374.766 53.259,374.36C56.468,373.935 59.376,372.799 61.506,370.796L61.507,370.796C63.509,368.666 64.645,365.758 65.07,362.549C65.476,359.484 65.376,357.398 65.376,357.398C65.376,357.398 65.476,355.31 65.07,352.245"/>
                </g>
                <g id="SecondaryColour" style="fill:rgb(0, 0, 0)" transform="matrix(1.77451,0,0,1.77451,49.1885,107.848)">
                    <path d="M0,-21.444C-0.616,-21.444 -1.115,-20.945 -1.115,-20.329C-1.115,-13.003 4.556,-6.98 11.738,-6.409L11.738,-1.115C11.738,-0.499 12.238,0 12.853,0C13.469,0 13.969,-0.499 13.969,-1.115L13.969,-6.409C21.151,-6.98 26.821,-13.003 26.821,-20.329C26.821,-20.945 26.322,-21.444 25.706,-21.444C25.09,-21.444 24.591,-20.945 24.591,-20.329C24.591,-13.856 19.326,-8.591 12.853,-8.591C6.381,-8.591 1.115,-13.856 1.115,-20.329C1.115,-20.945 0.616,-21.444 0,-21.444"/>
                </g>
                <g id="IconColour" style="fill:rgb(255, 255, 255)" transform="matrix(1.77451,0,0,1.77451,58.5395,71.6872)">
                    <path d="M0,-8.838C0,-13.019 3.402,-16.421 7.584,-16.421C11.765,-16.421 15.167,-13.019 15.167,-8.838L15.167,-0.001C15.167,4.18 11.765,7.582 7.584,7.582C3.402,7.582 0,4.18 0,-0.001L0,-8.838ZM7.584,9.813C12.995,9.813 17.397,5.41 17.397,-0.001L17.397,-8.838C17.397,-14.249 12.995,-18.651 7.584,-18.651C2.173,-18.651 -2.23,-14.249 -2.23,-8.838L-2.23,-0.001C-2.23,5.41 2.173,9.813 7.584,9.813"/>
                </g>
            </g>
        </g>
    </g>
</svg>
