<?xml version="1.0" encoding="UTF-8" standalone="no"?>
<!DOCTYPE svg PUBLIC "-//W3C//DTD SVG 1.1//EN" "http://www.w3.org/Graphics/SVG/1.1/DTD/svg11.dtd">
<svg width="100%" height="100%" viewBox="0 0 144 144" version="1.1" xmlns="http://www.w3.org/2000/svg" xmlns:xlink="http://www.w3.org/1999/xlink" xml:space="preserve" xmlns:serif="http://www.serif.com/" style="fill-rule:evenodd;clip-rule:evenodd;stroke-linejoin:round;stroke-miterlimit:2;">
    <g transform="matrix(1,0,0,1,-351.672,-185.494)">
        <g transform="matrix(1,0,0,1,351.672,185.494)">
            <rect x="0" y="0" width="143.993" height="143.998" style="fill:none;"/>
            <clipPath>
                <rect x="0" y="0" width="143.993" height="143.998"/>
            </clipPath>
            <g>
                <g id="HighlightColour" style="fill:rgb(44,44,94)" transform="matrix(4.16667,0,0,4.16667,-683.577,-1417.16)">
                    <path d="M198.301,352.246C197.875,349.037 196.739,346.128 194.737,343.999L194.736,343.999C192.607,341.996 189.699,340.86 186.489,340.435C183.424,340.029 181.338,340.129 181.338,340.129C181.338,340.129 179.251,340.029 176.186,340.435C172.977,340.86 170.069,341.996 167.939,343.999C165.936,346.128 164.8,349.037 164.376,352.246C163.969,355.31 164.069,357.397 164.069,357.397C164.069,357.397 163.969,359.484 164.376,362.549C164.8,365.758 165.936,368.666 167.939,370.796C170.069,372.799 172.977,373.935 176.186,374.36C179.251,374.766 181.338,374.666 181.338,374.666C181.338,374.666 183.424,374.766 186.489,374.36C189.699,373.935 192.607,372.799 194.736,370.796L194.737,370.796C196.739,368.666 197.875,365.758 198.301,362.549C198.706,359.484 198.606,357.397 198.606,357.397C198.606,357.397 198.706,355.31 198.301,352.246"/>
                </g>
                <g id="PrimaryColour" style="fill:rgb(245,187,1)" transform="matrix(1.34614,0,0,1.34614,78.6322,55.2687)">
                    <path d="M0,21.376C-0.221,22.702 -1.41,24.157 -2.706,24.69C-3.161,24.878 -3.814,25.022 -4.349,24.635C-6.727,22.98 -9.349,20.949 -12.125,18.798L-12.267,18.688C-13.096,18.046 -14.125,17.665 -15.164,17.614C-16.473,17.549 -17.792,17.455 -19.073,17.335C-20.602,17.176 -22.058,15.797 -22.128,14.447C-22.242,12.022 -22.242,9.562 -22.128,7.142C-22.058,5.787 -20.602,4.408 -19.085,4.25C-17.78,4.128 -16.461,4.034 -15.165,3.97C-14.125,3.919 -13.096,3.538 -12.267,2.896L-12.125,2.786C-9.349,0.635 -6.727,-1.396 -4.333,-3.063C-3.816,-3.439 -3.162,-3.294 -2.706,-3.106C-1.41,-2.574 -0.221,-1.118 -0.005,0.175C0.96,7.22 0.96,14.363 0,21.376M-1.858,-5.169C-3.243,-5.738 -4.586,-5.631 -5.624,-4.882C-8.048,-3.194 -10.692,-1.146 -13.491,1.023L-13.633,1.133C-14.103,1.497 -14.686,1.714 -15.274,1.742C-16.603,1.808 -17.955,1.904 -19.304,2.031C-21.962,2.307 -24.227,4.548 -24.356,7.032C-24.474,9.527 -24.474,12.057 -24.355,14.557C-24.227,17.035 -21.962,19.276 -19.292,19.554C-17.968,19.678 -16.616,19.775 -15.274,19.842C-14.686,19.87 -14.103,20.087 -13.633,20.451L-13.491,20.561C-10.692,22.73 -8.048,24.777 -5.64,26.454C-5.033,26.893 -4.33,27.114 -3.578,27.114C-3.025,27.114 -2.446,26.994 -1.859,26.753C0.146,25.93 1.853,23.822 2.205,21.711C3.198,14.466 3.198,7.118 2.2,-0.159C1.853,-2.239 0.146,-4.346 -1.858,-5.169"/>
                </g>
                <g id="SecondaryColour" style="fill:rgb(209,17,112)" transform="matrix(1.34614,0,0,1.34614,90.6442,81.2912)">
                    <path d="M0,-17.079C-0.616,-17.079 -1.115,-16.58 -1.115,-15.964C-1.115,-15.348 -0.616,-14.849 0,-14.849C1.623,-14.849 3.432,-12.258 3.432,-8.54C3.432,-4.822 1.623,-2.231 0,-2.231C-0.616,-2.231 -1.115,-1.731 -1.115,-1.115C-1.115,-0.5 -0.616,0 0,0C3.175,0 5.662,-3.751 5.662,-8.54C5.662,-13.328 3.175,-17.079 0,-17.079"/>
                </g>
            </g>
        </g>
    </g>
</svg>
