<svg width="16" height="16" viewBox="0 0 16 16" fill="none" xmlns="http://www.w3.org/2000/svg">
<path d="M11 3.5C11 3.22386 11.2239 3 11.5 3H13.5C13.7761 3 14 3.22386 14 3.5C14 3.77614 13.7761 4 13.5 4H11.5C11.2239 4 11 3.77614 11 3.5Z" fill="#000001"/>
<path fill-rule="evenodd" clip-rule="evenodd" d="M2 11C0.895431 11 0 10.1046 0 9V3C0 1.89543 0.895431 1 2 1H14C15.1046 1 16 1.89543 16 3V9C16 10.1046 15.1046 11 14 11H2ZM2 2H14C14.5523 2 15 2.44772 15 3V9C15 9.55229 14.5523 10 14 10C14 8.89543 13.1046 8 12 8H4C2.89543 8 2 8.89543 2 10C1.44772 10 1 9.55228 1 9V3C1 2.44772 1.44772 2 2 2ZM3 10H13C13 9.44772 12.5523 9 12 9H4C3.44772 9 3 9.44772 3 10Z" fill="#000001"/>
<path d="M8.5 12.5C8.5 12.2239 8.27614 12 8 12C7.72386 12 7.5 12.2239 7.5 12.5V14.5C7.5 14.7761 7.72386 15 8 15C8.27614 15 8.5 14.7761 8.5 14.5V12.5Z" fill="#000001"/>
<path d="M4.35355 12.1464C4.54882 12.3417 4.54882 12.6583 4.35355 12.8536L2.35355 14.8536C2.15829 15.0488 1.84171 15.0488 1.64645 14.8536C1.45118 14.6583 1.45118 14.3417 1.64645 14.1464L3.64645 12.1464C3.84171 11.9512 4.15829 11.9512 4.35355 12.1464Z" fill="#000001"/>
<path d="M14.3536 14.1464L12.3536 12.1464C12.1583 11.9512 11.8417 11.9512 11.6464 12.1464C11.4512 12.3417 11.4512 12.6583 11.6464 12.8536L13.6464 14.8536C13.8417 15.0488 14.1583 15.0488 14.3536 14.8536C14.5488 14.6583 14.5488 14.3417 14.3536 14.1464Z" fill="#000001"/>
</svg>
