<?xml version="1.0" encoding="utf-8"?>
<!-- Generator: Adobe Illustrator 27.7.0, SVG Export Plug-In . SVG Version: 6.00 Build 0)  -->
<svg version="1.1" id="Layer_1" xmlns="http://www.w3.org/2000/svg" xmlns:xlink="http://www.w3.org/1999/xlink" x="0px" y="0px"
	 viewBox="0 0 16 16" style="enable-background:new 0 0 16 16;" xml:space="preserve">
<style type="text/css">
	.st0{fill:#FFFFFF;}
	.st1{fill-rule:evenodd;clip-rule:evenodd;fill:#FFFFFF;}
</style>
<path class="st0" d="M14,7c0,0.6-0.4,1-1,1s-1-0.4-1-1s0.4-1,1-1S14,6.4,14,7z"/>
<path class="st0" d="M13,11c0.6,0,1-0.4,1-1c0-0.6-0.4-1-1-1s-1,0.4-1,1C12,10.6,12.4,11,13,11z"/>
<path class="st0" d="M14,13c0,0.6-0.4,1-1,1s-1-0.4-1-1s0.4-1,1-1S14,12.4,14,13z"/>
<path class="st1" d="M8.9,0.8c0.2-0.2,0.2-0.5,0-0.7C8.6-0.1,8.3,0,8.1,0.2L5,3.7l-1.6-2C3.2,1.5,2.9,1.4,2.7,1.6
	C2.5,1.8,2.4,2.1,2.6,2.3L4,4H2C0.9,4,0,4.9,0,6v8c0,1.1,0.9,2,2,2h12c1.1,0,2-0.9,2-2V6c0-1.1-0.9-2-2-2H6.1L8.9,0.8z M10,5v10H2
	c-0.6,0-1-0.4-1-1V6c0-0.6,0.4-1,1-1H10z M11,5h3c0.6,0,1,0.4,1,1v8c0,0.6-0.4,1-1,1h-3V5z"/>
</svg>
