<svg width="16" height="16" viewBox="0 0 16 16" fill="none" xmlns="http://www.w3.org/2000/svg">
<path d="M14 7C14 7.55228 13.5523 8 13 8C12.4477 8 12 7.55228 12 7C12 6.44772 12.4477 6 13 6C13.5523 6 14 6.44772 14 7Z" fill="#000001"/>
<path d="M13 11C13.5523 11 14 10.5523 14 10C14 9.44771 13.5523 9 13 9C12.4477 9 12 9.44771 12 10C12 10.5523 12.4477 11 13 11Z" fill="#000001"/>
<path d="M14 13C14 13.5523 13.5523 14 13 14C12.4477 14 12 13.5523 12 13C12 12.4477 12.4477 12 13 12C13.5523 12 14 12.4477 14 13Z" fill="#000001"/>
<path fill-rule="evenodd" clip-rule="evenodd" d="M8.8763 0.829259C9.05815 0.621441 9.03709 0.30556 8.82927 0.123719C8.62145 -0.0581225 8.30557 -0.0370638 8.12373 0.170755L5.01719 3.72108L3.39045 1.68766C3.21795 1.47203 2.9033 1.43707 2.68767 1.60957C2.47204 1.78208 2.43708 2.09672 2.60958 2.31235L3.9597 4H2C0.895431 4 0 4.89543 0 6V14C0 15.1046 0.895431 16 2 16H14C15.1046 16 16 15.1046 16 14V6C16 4.89543 15.1046 4 14 4H6.10191L8.8763 0.829259ZM10 5V15H2C1.44772 15 1 14.5523 1 14V6C1 5.44772 1.44772 5 2 5H10ZM11 5H14C14.5523 5 15 5.44772 15 6V14C15 14.5523 14.5523 15 14 15H11V5Z" fill="#000001"/>
</svg>
