<svg width="16" height="16" viewBox="0 0 16 16" fill="none" xmlns="http://www.w3.org/2000/svg">
<path d="M6 13C6 12.7239 6.22386 12.5 6.5 12.5H9.5C9.77614 12.5 10 12.7239 10 13C10 13.2761 9.77614 13.5 9.5 13.5H6.5C6.22386 13.5 6 13.2761 6 13Z" fill="#000001"/>
<path d="M5.5 11C5.5 10.7239 5.72386 10.5 6 10.5H10C10.2761 10.5 10.5 10.7239 10.5 11C10.5 11.2761 10.2761 11.5 10 11.5H6C5.72386 11.5 5.5 11.2761 5.5 11Z" fill="#000001"/>
<path fill-rule="evenodd" clip-rule="evenodd" d="M4.5 0.5C4.5 0.776142 4.72386 1 5 1H7.5V2H6.39719C5.93075 2 5.52627 2.32247 5.42233 2.77718L4.68568 6H4C3.44772 6 3 6.44772 3 7V8.5C3 9.05229 3.44772 9.5 4 9.5V12C4 14.2091 5.79086 16 8 16C10.2091 16 12 14.2091 12 12V9.5C12.5523 9.5 13 9.05229 13 8.5V7C13 6.44772 12.5523 6 12 6H11.3143L10.5776 2.77718C10.4737 2.32247 10.0692 2 9.60275 2H8.5V1H11C11.2761 1 11.5 0.776142 11.5 0.5C11.5 0.223858 11.2761 0 11 0H5C4.72386 0 4.5 0.223858 4.5 0.5ZM4 8.5V7H12V8.5H4ZM5 9.5H11V12C11 13.6569 9.65685 15 8 15C6.34315 15 5 13.6569 5 12V9.5ZM6.39719 3L5.71147 6H10.2885L9.60275 3H6.39719Z" fill="#000001"/>
</svg>
