<?xml version="1.0" encoding="utf-8"?>
<!-- Generator: Adobe Illustrator 27.3.1, SVG Export Plug-In . SVG Version: 6.00 Build 0)  -->
<svg version="1.1" id="Layer_1" xmlns="http://www.w3.org/2000/svg" xmlns:xlink="http://www.w3.org/1999/xlink" x="0px" y="0px"
	 viewBox="0 0 24 24" style="enable-background:new 0 0 24 24;" xml:space="preserve">
<style type="text/css">
	.st0{fill:none;}
	.st1{fill:#FFFFFF;}
</style>
<path class="st0" d="M0,0h24v24H0V0z"/>
<path class="st1" d="M5.5,8.5L2,12l3.5,3.5l1.8-1.8L5.5,12l1.8-1.8L5.5,8.5z M12,18.5l-1.8-1.8l-1.8,1.8L12,22l3.5-3.5l-1.8-1.8
	L12,18.5z M18.5,8.5l-1.8,1.8l1.8,1.8l-1.8,1.8l1.8,1.8L22,12L18.5,8.5z M8.5,5.5l1.8,1.8L12,5.5l1.8,1.8l1.8-1.8L12,2L8.5,5.5z"/>
<circle class="st1" cx="12" cy="12" r="3"/>
</svg>
