<?xml version="1.0" encoding="utf-8"?>
<!-- Generator: Adobe Illustrator 27.7.0, SVG Export Plug-In . SVG Version: 6.00 Build 0)  -->
<svg version="1.1" id="Layer_1" xmlns="http://www.w3.org/2000/svg" xmlns:xlink="http://www.w3.org/1999/xlink" x="0px" y="0px"
	 viewBox="0 0 16 16" style="enable-background:new 0 0 16 16;" xml:space="preserve">
<style type="text/css">
	.st0{fill:#FFFFFF;}
	.st1{fill-rule:evenodd;clip-rule:evenodd;fill:#FFFFFF;}
</style>
<path class="st0" d="M3,9.5C3,9.2,3.2,9,3.5,9h2C5.8,9,6,9.2,6,9.5S5.8,10,5.5,10h-2C3.2,10,3,9.8,3,9.5z"/>
<path class="st0" d="M12.5,10c0.3,0,0.5-0.2,0.5-0.5S12.8,9,12.5,9S12,9.2,12,9.5S12.2,10,12.5,10z"/>
<path class="st0" d="M12.5,12c0.3,0,0.5-0.2,0.5-0.5S12.8,11,12.5,11S12,11.2,12,11.5S12.2,12,12.5,12z"/>
<path class="st1" d="M14,6c0-3.3-2.7-6-6-6C4.7,0,2,2.7,2,6C0.9,6,0,6.9,0,8v6c0,1.1,0.9,2,2,2h12c1.1,0,2-0.9,2-2V8
	C16,6.9,15.1,6,14,6z M2,7C1.4,7,1,7.4,1,8v6c0,0.6,0.4,1,1,1h12c0.6,0,1-0.4,1-1V8c0-0.6-0.4-1-1-1H2z M10,6h3c0-2.8-2.2-5-5-5
	C5.2,1,3,3.2,3,6h3c0-1.1,0.9-2,2-2S10,4.9,10,6z M9,6c0-0.6-0.4-1-1-1S7,5.4,7,6H9z"/>
</svg>
