<?xml version="1.0" encoding="utf-8"?>
<!-- Generator: Adobe Illustrator 27.7.0, SVG Export Plug-In . SVG Version: 6.00 Build 0)  -->
<svg version="1.1" id="Layer_1" xmlns="http://www.w3.org/2000/svg" xmlns:xlink="http://www.w3.org/1999/xlink" x="0px" y="0px"
	 viewBox="0 0 17 16" style="enable-background:new 0 0 17 16;" xml:space="preserve">
<style type="text/css">
	.st0{fill-rule:evenodd;clip-rule:evenodd;fill:#FFFFFF;}
	.st1{fill:#FFFFFF;}
</style>
<path class="st0" d="M7,6.5c0,1.1-0.9,2-2,2s-2-0.9-2-2s0.9-2,2-2S7,5.4,7,6.5z M6,6.5c0,0.6-0.4,1-1,1c-0.6,0-1-0.4-1-1s0.4-1,1-1
	C5.6,5.5,6,5.9,6,6.5z"/>
<path class="st1" d="M12.3,5.2c0,0.4-0.3,0.8-0.8,0.8c-0.4,0-0.8-0.3-0.8-0.8s0.3-0.8,0.8-0.8C11.9,4.5,12.3,4.8,12.3,5.2z"/>
<path class="st1" d="M10.3,7.2c0.4,0,0.8-0.3,0.8-0.8s-0.3-0.8-0.8-0.8c-0.4,0-0.8,0.3-0.8,0.8S9.9,7.2,10.3,7.2z"/>
<path class="st1" d="M12.3,7.8c0,0.4-0.3,0.8-0.8,0.8c-0.4,0-0.8-0.3-0.8-0.8c0-0.4,0.3-0.8,0.8-0.8C11.9,7,12.3,7.3,12.3,7.8z"/>
<path class="st1" d="M12.8,7.2c0.4,0,0.8-0.3,0.8-0.8s-0.3-0.8-0.8-0.8c-0.4,0-0.8,0.3-0.8,0.8S12.4,7.2,12.8,7.2z"/>
<path class="st0" d="M4.3,2C2.8,2,1.4,3.1,1.1,4.7L0,10.3c-0.3,1.7,1,3.2,2.7,3.2c1,0,1.9-0.5,2.4-1.4l1.1-1.9
	C6.3,10.1,6.4,10,6.6,10h2.9c0.2,0,0.3,0.1,0.4,0.2l1.1,1.9c0.5,0.9,1.4,1.4,2.4,1.4c1.7,0,3-1.6,2.7-3.2L15,4.7
	C14.7,3.1,13.3,2,11.7,2H4.3z M2.1,4.9C2.3,3.8,3.2,3,4.3,3h7.4c1.1,0,2,0.8,2.2,1.9l1.1,5.6c0.2,1.1-0.6,2.1-1.7,2.1
	c-0.6,0-1.2-0.3-1.5-0.9l-1.1-1.9C10.5,9.3,10,9,9.5,9H6.6c-0.5,0-1,0.3-1.3,0.7l-1.1,1.9c-0.3,0.5-0.9,0.9-1.5,0.9
	c-1.1,0-1.9-1-1.7-2.1L2.1,4.9z"/>
</svg>
