<svg width="17" height="16" viewBox="0 0 17 16" fill="none" xmlns="http://www.w3.org/2000/svg">
<path fill-rule="evenodd" clip-rule="evenodd" d="M7.03516 6.5C7.03516 7.60457 6.13973 8.5 5.03516 8.5C3.93059 8.5 3.03516 7.60457 3.03516 6.5C3.03516 5.39543 3.93059 4.5 5.03516 4.5C6.13973 4.5 7.03516 5.39543 7.03516 6.5ZM6.03516 6.5C6.03516 7.05228 5.58744 7.5 5.03516 7.5C4.48287 7.5 4.03516 7.05228 4.03516 6.5C4.03516 5.94772 4.48287 5.5 5.03516 5.5C5.58744 5.5 6.03516 5.94772 6.03516 6.5Z" fill="#000001"/>
<path d="M12.2852 5.25C12.2852 5.66421 11.9494 6 11.5352 6C11.1209 6 10.7852 5.66421 10.7852 5.25C10.7852 4.83579 11.1209 4.5 11.5352 4.5C11.9494 4.5 12.2852 4.83579 12.2852 5.25Z" fill="#000001"/>
<path d="M10.2852 7.25C10.6994 7.25 11.0352 6.91421 11.0352 6.5C11.0352 6.08579 10.6994 5.75 10.2852 5.75C9.87094 5.75 9.53516 6.08579 9.53516 6.5C9.53516 6.91421 9.87094 7.25 10.2852 7.25Z" fill="#000001"/>
<path d="M12.2852 7.75C12.2852 8.16421 11.9494 8.5 11.5352 8.5C11.1209 8.5 10.7852 8.16421 10.7852 7.75C10.7852 7.33579 11.1209 7 11.5352 7C11.9494 7 12.2852 7.33579 12.2852 7.75Z" fill="#000001"/>
<path d="M12.7852 7.25C13.1994 7.25 13.5352 6.91421 13.5352 6.5C13.5352 6.08579 13.1994 5.75 12.7852 5.75C12.3709 5.75 12.0352 6.08579 12.0352 6.5C12.0352 6.91421 12.3709 7.25 12.7852 7.25Z" fill="#000001"/>
<path fill-rule="evenodd" clip-rule="evenodd" d="M4.33293 2C2.7594 2 1.40795 3.11832 1.11353 4.66407L0.0491797 10.2519C-0.271983 11.938 1.0206 13.5 2.73702 13.5C3.71891 13.5 4.62552 12.9739 5.11267 12.1214L6.19298 10.2308C6.27454 10.0881 6.42633 10 6.59073 10H9.4787C9.6431 10 9.79489 10.0881 9.87645 10.2308L10.9568 12.1214C11.4439 12.9739 12.3505 13.5 13.3324 13.5C15.0488 13.5 16.3414 11.938 16.0202 10.2519L14.9559 4.66407C14.6615 3.11832 13.31 2 11.7365 2H4.33293ZM2.09586 4.85118C2.30044 3.77709 3.23953 3 4.33293 3H11.7365C12.8299 3 13.769 3.77709 13.9736 4.85118L15.0379 10.439C15.2417 11.5089 14.4215 12.5 13.3324 12.5C12.7094 12.5 12.1341 12.1662 11.825 11.6252L10.7447 9.73469C10.4851 9.28038 10.002 9 9.4787 9H6.59073C6.06747 9 5.58435 9.28038 5.32474 9.73469L4.24443 11.6252C3.93532 12.1662 3.36005 12.5 2.73702 12.5C1.64791 12.5 0.82774 11.5089 1.03153 10.439L2.09586 4.85118Z" fill="#000001"/>
</svg>
