<svg width="16" height="16" viewBox="0 0 16 16" fill="none" xmlns="http://www.w3.org/2000/svg">
<path d="M2.5 4C2.22386 4 2 4.22386 2 4.5C2 4.77614 2.22386 5 2.5 5H4.5C4.77614 5 5 4.77614 5 4.5C5 4.22386 4.77614 4 4.5 4H2.5Z" fill="#000001"/>
<path d="M10.5 9C11.3284 9 12 8.32843 12 7.5C12 6.67157 11.3284 6 10.5 6C9.67157 6 9 6.67157 9 7.5C9 8.32843 9.67157 9 10.5 9Z" fill="#000001"/>
<path fill-rule="evenodd" clip-rule="evenodd" d="M10.5 11C12.433 11 14 9.433 14 7.5C14 5.567 12.433 4 10.5 4C8.567 4 7 5.567 7 7.5C7 9.433 8.567 11 10.5 11ZM10.5 10C11.8807 10 13 8.88071 13 7.5C13 6.11929 11.8807 5 10.5 5C9.11929 5 8 6.11929 8 7.5C8 8.88071 9.11929 10 10.5 10Z" fill="#000001"/>
<path fill-rule="evenodd" clip-rule="evenodd" d="M0 4C0 2.89543 0.895431 2 2 2H14C15.1046 2 16 2.89543 16 4V11C16 12.1046 15.1046 13 14 13V14H11.5V13H4.5V14H2V13C0.895431 13 0 12.1046 0 11V4ZM2 3H14C14.5523 3 15 3.44772 15 4V11C15 11.5523 14.5523 12 14 12H2C1.44772 12 1 11.5523 1 11V4C1 3.44772 1.44772 3 2 3Z" fill="#000001"/>
</svg>
