<?xml version="1.0" encoding="utf-8"?>
<!-- Generator: Adobe Illustrator 27.3.1, SVG Export Plug-In . SVG Version: 6.00 Build 0)  -->
<svg version="1.1" id="Layer_1" xmlns="http://www.w3.org/2000/svg" xmlns:xlink="http://www.w3.org/1999/xlink" x="0px" y="0px"
	 viewBox="0 0 16 16" style="enable-background:new 0 0 16 16;" xml:space="preserve">
<style type="text/css">
	.st0{fill:#FFFFFF;}
	.st1{fill-rule:evenodd;clip-rule:evenodd;fill:#FFFFFF;}
</style>
<path class="st0" d="M2.5,4C2.2,4,2,4.2,2,4.5S2.2,5,2.5,5h2C4.8,5,5,4.8,5,4.5S4.8,4,4.5,4H2.5z"/>
<path class="st0" d="M10.5,9C11.3,9,12,8.3,12,7.5S11.3,6,10.5,6C9.7,6,9,6.7,9,7.5S9.7,9,10.5,9z"/>
<path class="st1" d="M10.5,11c1.9,0,3.5-1.6,3.5-3.5S12.4,4,10.5,4S7,5.6,7,7.5S8.6,11,10.5,11z M10.5,10c1.4,0,2.5-1.1,2.5-2.5
	S11.9,5,10.5,5C9.1,5,8,6.1,8,7.5S9.1,10,10.5,10z"/>
<path class="st1" d="M0,4c0-1.1,0.9-2,2-2h12c1.1,0,2,0.9,2,2v7c0,1.1-0.9,2-2,2v1h-2.5v-1h-7v1H2v-1c-1.1,0-2-0.9-2-2V4z M2,3h12
	c0.6,0,1,0.4,1,1v7c0,0.6-0.4,1-1,1H2c-0.6,0-1-0.4-1-1V4C1,3.4,1.4,3,2,3z"/>
</svg>
