<svg width="16" height="16" viewBox="0 0 16 16" fill="none" xmlns="http://www.w3.org/2000/svg">
<path d="M13 4C13.5523 4 14 3.55228 14 3C14 2.44772 13.5523 2 13 2C12.4477 2 12 2.44772 12 3C12 3.55228 12.4477 4 13 4Z" fill="#000001"/>
<path d="M14 8C14 8.55229 13.5523 9 13 9C12.4477 9 12 8.55229 12 8C12 7.44772 12.4477 7 13 7C13.5523 7 14 7.44772 14 8Z" fill="#000001"/>
<path d="M13 14C13.5523 14 14 13.5523 14 13C14 12.4477 13.5523 12 13 12C12.4477 12 12 12.4477 12 13C12 13.5523 12.4477 14 13 14Z" fill="#000001"/>
<path fill-rule="evenodd" clip-rule="evenodd" d="M0.67709 5.5C0.261879 5.13353 0 4.59735 0 4V2C0 0.895431 0.895431 0 2 0H14C15.1046 0 16 0.895431 16 2V4C16 4.59735 15.7381 5.13353 15.3229 5.5C15.7381 5.86647 16 6.40265 16 7V9C16 9.59735 15.7381 10.1335 15.3229 10.5C15.7381 10.8665 16 11.4027 16 12V14C16 15.1046 15.1046 16 14 16H2C0.895431 16 0 15.1046 0 14V12C0 11.4027 0.261879 10.8665 0.67709 10.5C0.261879 10.1335 0 9.59735 0 9V7C0 6.40265 0.261879 5.86647 0.67709 5.5ZM2 1H14C14.5523 1 15 1.44772 15 2V4C15 4.55228 14.5523 5 14 5H2C1.44772 5 1 4.55228 1 4V2C1 1.44772 1.44772 1 2 1ZM15 9C15 9.55228 14.5523 10 14 10H2C1.44772 10 1 9.55228 1 9V7C1 6.44772 1.44772 6 2 6H14C14.5523 6 15 6.44772 15 7V9ZM1 12C1 11.4477 1.44772 11 2 11H14C14.5523 11 15 11.4477 15 12V14C15 14.5523 14.5523 15 14 15H2C1.44772 15 1 14.5523 1 14V12Z" fill="#000001"/>
</svg>
