<?xml version="1.0" encoding="utf-8"?>
<!-- Generator: Adobe Illustrator 27.7.0, SVG Export Plug-In . SVG Version: 6.00 Build 0)  -->
<svg version="1.1" id="Layer_1" xmlns="http://www.w3.org/2000/svg" xmlns:xlink="http://www.w3.org/1999/xlink" x="0px" y="0px"
	 viewBox="0 0 16 16" style="enable-background:new 0 0 16 16;" xml:space="preserve">
<style type="text/css">
	.st0{fill-rule:evenodd;clip-rule:evenodd;fill:#FFFFFF;}
</style>
<path class="st0" d="M5.5,12.5c-0.3-0.2-0.6-0.5-0.9-0.8l-0.3-0.3c-3-3-3-8,0-11c0.5-0.5,1.3-0.5,1.8,0l4.4,4.4l1.3-1.3l-0.6-0.6
	c-0.2-0.2-0.2-0.5,0-0.7c0.2-0.2,0.5-0.2,0.7,0l2,2c0.2,0.2,0.2,0.5,0,0.7c-0.2,0.2-0.5,0.2-0.7,0l-0.6-0.6l-1.3,1.3l4.4,4.4
	c0.5,0.5,0.5,1.3,0,1.8c-2.5,2.5-6.3,2.9-9.2,1.3c0,0,0.1,0,0.1,0V15h4c0.3,0,0.5,0.2,0.5,0.5c0,0.3-0.2,0.5-0.5,0.5h-9
	C1.2,16,1,15.8,1,15.5C1,15.2,1.2,15,1.5,15h4V12.5z M5.3,11L5,10.7C2.3,8,2.3,3.7,5,1.1C5.1,1,5.2,1,5.3,1.1l9.6,9.6
	c0.1,0.1,0.1,0.3,0,0.3C12.3,13.7,8,13.7,5.3,11z"/>
</svg>
