<?xml version="1.0" encoding="utf-8"?>
<!-- Generator: Adobe Illustrator 27.3.1, SVG Export Plug-In . SVG Version: 6.00 Build 0)  -->
<svg version="1.1" id="Layer_1" xmlns="http://www.w3.org/2000/svg" xmlns:xlink="http://www.w3.org/1999/xlink" x="0px" y="0px"
	 viewBox="0 0 16 16" style="enable-background:new 0 0 16 16;" xml:space="preserve">
<style type="text/css">
	.st0{fill-rule:evenodd;clip-rule:evenodd;fill:#FFFFFF;}
	.st1{fill:#FFFFFF;}
</style>
<path class="st0" d="M12,8c0,2.2-1.8,4-4,4c-2.2,0-4-1.8-4-4c0-2.2,1.8-4,4-4C10.2,4,12,5.8,12,8z M11,8c0,1.7-1.3,3-3,3S5,9.7,5,8
	s1.3-3,3-3S11,6.3,11,8z"/>
<path class="st1" d="M8,14c0.3,0,0.5-0.2,0.5-0.5S8.3,13,8,13s-0.5,0.2-0.5,0.5S7.7,14,8,14z"/>
<path class="st1" d="M11,12.8c0,0.3-0.2,0.5-0.5,0.5S10,13,10,12.8s0.2-0.5,0.5-0.5S11,12.5,11,12.8z"/>
<path class="st1" d="M5.5,13.2C5.8,13.2,6,13,6,12.8s-0.2-0.5-0.5-0.5S5,12.5,5,12.8S5.2,13.2,5.5,13.2z"/>
<path class="st0" d="M8,16c4.4,0,8-3.6,8-8c0-4.4-3.6-8-8-8C3.6,0,0,3.6,0,8C0,12.4,3.6,16,8,16z M8,15c3.7,0,6.7-2.9,7-6.5h-1.5
	C13.2,8.5,13,8.3,13,8c0-1.5-0.5-2.8-1.4-3.6C10.8,3.5,9.5,3,8,3S5.2,3.5,4.4,4.4S3,6.5,3,8c0,0.3-0.2,0.5-0.5,0.5H1
	C1.3,12.1,4.3,15,8,15z M8,1c3.7,0,6.7,2.9,7,6.5h-1c-0.1-1.6-0.7-2.9-1.6-3.8C11.3,2.6,9.8,2,8,2S4.7,2.6,3.7,3.7
	c-1,1-1.5,2.3-1.6,3.8H1C1.3,3.9,4.3,1,8,1z"/>
</svg>
