<?xml version="1.0" encoding="utf-8"?>
<!-- Generator: Adobe Illustrator 27.2.0, SVG Export Plug-In . SVG Version: 6.00 Build 0)  -->
<svg version="1.1" id="Layer_1" xmlns="http://www.w3.org/2000/svg" xmlns:xlink="http://www.w3.org/1999/xlink" x="0px" y="0px"
	 viewBox="0 0 24 24" style="enable-background:new 0 0 24 24;" xml:space="preserve">
<style type="text/css">
	.st0{fill:none;}
	.st1{fill:#F3F2F1;}
</style>
<path class="st0" d="M0,0h24v24H0V0z"/>
<path class="st1" d="M17.9,19.3C16.1,20.4,14.1,21,12,21c-5.4,0-9.9-3.9-10.8-9c0.4-2.3,1.6-4.5,3.3-6.1L1.4,2.8l1.4-1.4l19.8,19.8
	l-1.4,1.4L17.9,19.3L17.9,19.3z M5.9,7.3C4.6,8.6,3.6,10.2,3.2,12c1.1,4.8,5.9,7.9,10.8,6.8c0.8-0.2,1.7-0.5,2.4-0.9l-2-2
	c-2.1,1.3-4.9,0.7-6.2-1.4c-0.9-1.5-0.9-3.3,0-4.8L5.9,7.3z M12.9,14.3l-3.2-3.2c-0.5,1.3,0.1,2.7,1.4,3.2
	C11.7,14.6,12.3,14.6,12.9,14.3L12.9,14.3z M20.8,16.6l-1.4-1.4c0.7-1,1.1-2,1.4-3.2C19.7,7.2,14.8,4.1,10,5.2
	c-0.1,0-0.3,0.1-0.4,0.1L8,3.8C9.2,3.3,10.6,3,12,3c5.4,0,9.9,3.9,10.8,9C22.5,13.7,21.8,15.2,20.8,16.6z M11.7,7.5
	c2.5-0.2,4.6,1.7,4.8,4.2c0,0.2,0,0.4,0,0.6L11.7,7.5L11.7,7.5z"/>
</svg>
