<?xml version="1.0" encoding="utf-8"?>
<!-- Generator: Adobe Illustrator 27.2.0, SVG Export Plug-In . SVG Version: 6.00 Build 0)  -->
<svg version="1.1" id="Layer_1" xmlns="http://www.w3.org/2000/svg" xmlns:xlink="http://www.w3.org/1999/xlink" x="0px" y="0px"
	 viewBox="0 0 24 24" style="enable-background:new 0 0 24 24;" xml:space="preserve">
<style type="text/css">
	.st0{fill:none;}
	.st1{fill:#424241;}
</style>
<path class="st0" d="M0,0h24v24H0V0z"/>
<path class="st1" d="M21,20c0,0.6-0.4,1-1,1H4c-0.6,0-1-0.4-1-1V9.5c0-0.3,0.1-0.6,0.4-0.8l8-6.2c0.4-0.3,0.9-0.3,1.2,0l8,6.2
	C20.9,8.9,21,9.2,21,9.5C21,9.5,21,20,21,20z M19,19v-9l-7-5.4L5,10v9H19z"/>
</svg>
