<?xml version="1.0" encoding="utf-8"?>
<!-- Generator: Adobe Illustrator 27.2.0, SVG Export Plug-In . SVG Version: 6.00 Build 0)  -->
<svg version="1.1" id="Layer_1" xmlns="http://www.w3.org/2000/svg" xmlns:xlink="http://www.w3.org/1999/xlink" x="0px" y="0px"
	 viewBox="0 0 16 16" style="enable-background:new 0 0 16 16;" xml:space="preserve">
<style type="text/css">
	.st0{fill-rule:evenodd;clip-rule:evenodd;fill:#424241;}
</style>
<path class="st0" d="M10.7,3.5C10.9,3.6,11,3.8,11,4v8c0,0.3-0.2,0.5-0.5,0.5c-0.1,0-0.2,0-0.3-0.1l-2.4-1.9H5.5
	C5.2,10.5,5,10.3,5,10V6c0-0.3,0.2-0.5,0.5-0.5h2.3l2.4-1.9C10.3,3.5,10.5,3.5,10.7,3.5z M10,5L8.3,6.4C8.2,6.5,8.1,6.5,8,6.5H6v3h2
	c0.1,0,0.2,0,0.3,0.1L10,11V5z"/>
</svg>
