<?xml version="1.0" encoding="utf-8"?>
<!-- Generator: Adobe Illustrator 27.2.0, SVG Export Plug-In . SVG Version: 6.00 Build 0)  -->
<svg version="1.1" id="Layer_1" xmlns="http://www.w3.org/2000/svg" xmlns:xlink="http://www.w3.org/1999/xlink" x="0px" y="0px"
	 viewBox="0 0 16 16" style="enable-background:new 0 0 16 16;" xml:space="preserve">
<style type="text/css">
	.st0{fill-rule:evenodd;clip-rule:evenodd;fill:#F3F2F1;}
	.st1{fill:#F3F2F1;}
</style>
<path class="st0" d="M8.7,3.5C8.9,3.6,9,3.8,9,4v8c0,0.3-0.2,0.5-0.5,0.5c-0.1,0-0.2,0-0.3-0.1l-2.4-1.9H3.5C3.2,10.5,3,10.3,3,10V6
	c0-0.3,0.2-0.5,0.5-0.5h2.3l2.4-1.9C8.3,3.5,8.5,3.5,8.7,3.5z M8,5L6.3,6.4C6.2,6.5,6.1,6.5,6,6.5H4v3h2c0.1,0,0.2,0,0.3,0.1L8,11V5
	z"/>
<path class="st1" d="M10.7,11.2c0.8-0.8,1.3-2,1.3-3.2c0-1.2-0.5-2.3-1.3-3.2L10,5.5c0.7,0.7,1,1.5,1,2.5c0,1-0.4,1.8-1,2.5
	L10.7,11.2z"/>
</svg>
