<?xml version="1.0" encoding="utf-8"?>
<!-- Generator: Adobe Illustrator 27.3.1, SVG Export Plug-In . SVG Version: 6.00 Build 0)  -->
<svg version="1.1" id="Layer_1" xmlns="http://www.w3.org/2000/svg" xmlns:xlink="http://www.w3.org/1999/xlink" x="0px" y="0px"
	 viewBox="0 0 16 16" style="enable-background:new 0 0 16 16;" xml:space="preserve">
<style type="text/css">
	.st0{fill:#FFFFFF;}
	.st1{fill-rule:evenodd;clip-rule:evenodd;fill:#FFFFFF;}
</style>
<path class="st0" d="M11,3.5C11,3.2,11.2,3,11.5,3h2C13.8,3,14,3.2,14,3.5S13.8,4,13.5,4h-2C11.2,4,11,3.8,11,3.5z"/>
<path class="st1" d="M2,11c-1.1,0-2-0.9-2-2V3c0-1.1,0.9-2,2-2h12c1.1,0,2,0.9,2,2v6c0,1.1-0.9,2-2,2H2z M2,2h12c0.6,0,1,0.4,1,1v6
	c0,0.6-0.4,1-1,1c0-1.1-0.9-2-2-2H4c-1.1,0-2,0.9-2,2c-0.6,0-1-0.4-1-1V3C1,2.4,1.4,2,2,2z M3,10h10c0-0.6-0.4-1-1-1H4
	C3.4,9,3,9.4,3,10z"/>
<path class="st0" d="M8.5,12.5C8.5,12.2,8.3,12,8,12s-0.5,0.2-0.5,0.5v2C7.5,14.8,7.7,15,8,15s0.5-0.2,0.5-0.5V12.5z"/>
<path class="st0" d="M4.4,12.1c0.2,0.2,0.2,0.5,0,0.7l-2,2c-0.2,0.2-0.5,0.2-0.7,0c-0.2-0.2-0.2-0.5,0-0.7l2-2
	C3.8,12,4.2,12,4.4,12.1z"/>
<path class="st0" d="M14.4,14.1l-2-2c-0.2-0.2-0.5-0.2-0.7,0c-0.2,0.2-0.2,0.5,0,0.7l2,2c0.2,0.2,0.5,0.2,0.7,0
	C14.5,14.7,14.5,14.3,14.4,14.1z"/>
</svg>
