<?xml version="1.0" encoding="utf-8"?>
<!-- Generator: Adobe Illustrator 27.3.1, SVG Export Plug-In . SVG Version: 6.00 Build 0)  -->
<svg version="1.1" id="Layer_1" xmlns="http://www.w3.org/2000/svg" xmlns:xlink="http://www.w3.org/1999/xlink" x="0px" y="0px"
	 viewBox="0 0 16 16" style="enable-background:new 0 0 16 16;" xml:space="preserve">
<style type="text/css">
	.st0{fill:#FFFFFF;}
	.st1{fill-rule:evenodd;clip-rule:evenodd;fill:#FFFFFF;}
</style>
<path class="st0" d="M6,13c0-0.3,0.2-0.5,0.5-0.5h3c0.3,0,0.5,0.2,0.5,0.5s-0.2,0.5-0.5,0.5h-3C6.2,13.5,6,13.3,6,13z"/>
<path class="st0" d="M5.5,11c0-0.3,0.2-0.5,0.5-0.5h4c0.3,0,0.5,0.2,0.5,0.5s-0.2,0.5-0.5,0.5H6C5.7,11.5,5.5,11.3,5.5,11z"/>
<path class="st1" d="M4.5,0.5C4.5,0.8,4.7,1,5,1h2.5v1H6.4c-0.5,0-0.9,0.3-1,0.8L4.7,6H4C3.4,6,3,6.4,3,7v1.5c0,0.6,0.4,1,1,1V12
	c0,2.2,1.8,4,4,4c2.2,0,4-1.8,4-4V9.5c0.6,0,1-0.4,1-1V7c0-0.6-0.4-1-1-1h-0.7l-0.7-3.2C10.5,2.3,10.1,2,9.6,2H8.5V1H11
	c0.3,0,0.5-0.2,0.5-0.5S11.3,0,11,0H5C4.7,0,4.5,0.2,4.5,0.5z M4,8.5V7h8v1.5H4z M5,9.5h6V12c0,1.7-1.3,3-3,3s-3-1.3-3-3V9.5z
	 M6.4,3L5.7,6h4.6L9.6,3H6.4z"/>
</svg>
