<svg width="16" height="16" viewBox="0 0 16 16" fill="none" xmlns="http://www.w3.org/2000/svg">
<path fill-rule="evenodd" clip-rule="evenodd" d="M7.5 0V2H6C5.44772 2 5 2.44772 5 3V4.50474C2.07697 5.61699 0 8.44525 0 11.7586C0 12.4442 0.555784 13 1.24138 13H5C5 14.6569 6.34315 16 8 16C9.65685 16 11 14.6569 11 13H14.7586C15.4442 13 16 12.4442 16 11.7586C16 8.44525 13.923 5.61699 11 4.50474V3C11 2.44772 10.5523 2 10 2H8.5V0H7.5ZM6 5.19418L5.35564 5.43937C2.80773 6.40887 1 8.87388 1 11.7586C1 11.8919 1.10807 12 1.24138 12H14.7586C14.8919 12 15 11.8919 15 11.7586C15 8.87388 13.1923 6.40887 10.6444 5.43937L10 5.19418V3H6V5.19418ZM8 15C6.89543 15 6 14.1046 6 13H10C10 14.1046 9.10457 15 8 15Z" fill="#000001"/>
</svg>
