<?xml version="1.0" encoding="utf-8"?>
<!-- Generator: Adobe Illustrator 27.3.1, SVG Export Plug-In . SVG Version: 6.00 Build 0)  -->
<svg version="1.1" id="Layer_1" xmlns="http://www.w3.org/2000/svg" xmlns:xlink="http://www.w3.org/1999/xlink" x="0px" y="0px"
	 viewBox="0 0 16 16" style="enable-background:new 0 0 16 16;" xml:space="preserve">
<style type="text/css">
	.st0{fill-rule:evenodd;clip-rule:evenodd;fill:#FFFFFF;}
</style>
<path class="st0" d="M7.5,0v2H6C5.4,2,5,2.4,5,3v1.5c-2.9,1.1-5,3.9-5,7.3C0,12.4,0.6,13,1.2,13H5c0,1.7,1.3,3,3,3s3-1.3,3-3h3.8
	c0.7,0,1.2-0.6,1.2-1.2c0-3.3-2.1-6.1-5-7.3V3c0-0.6-0.4-1-1-1H8.5V0H7.5z M6,5.2L5.4,5.4C2.8,6.4,1,8.9,1,11.8
	C1,11.9,1.1,12,1.2,12h13.5c0.1,0,0.2-0.1,0.2-0.2c0-2.9-1.8-5.3-4.4-6.3L10,5.2V3H6V5.2z M8,15c-1.1,0-2-0.9-2-2h4
	C10,14.1,9.1,15,8,15z"/>
</svg>
