<?xml version="1.0" encoding="utf-8"?>
<!-- Generator: Adobe Illustrator 27.7.0, SVG Export Plug-In . SVG Version: 6.00 Build 0)  -->
<svg version="1.1" id="Layer_1" xmlns="http://www.w3.org/2000/svg" xmlns:xlink="http://www.w3.org/1999/xlink" x="0px" y="0px"
	 viewBox="0 0 16 16" style="enable-background:new 0 0 16 16;" xml:space="preserve">
<style type="text/css">
	.st0{fill-rule:evenodd;clip-rule:evenodd;fill:#FFFFFF;}
	.st1{fill:#FFFFFF;}
</style>
<path class="st0" d="M13,1h3V0H0v1h1v14c0,0.6,0.4,1,1,1h10c0.6,0,1-0.4,1-1V1z M2,9v6h10V9H2z M12,8V7H2v1H12z M12,5v1H2V5H12z
	 M12,4V3H2v1H12z M12,1v1H2V1H12z"/>
<path class="st1" d="M15,2.5C15,2.8,14.8,3,14.5,3S14,2.8,14,2.5S14.2,2,14.5,2S15,2.2,15,2.5z"/>
<path class="st1" d="M14.5,5C14.8,5,15,4.8,15,4.5S14.8,4,14.5,4S14,4.2,14,4.5S14.2,5,14.5,5z"/>
<path class="st1" d="M15,6.5C15,6.8,14.8,7,14.5,7S14,6.8,14,6.5S14.2,6,14.5,6S15,6.2,15,6.5z"/>
<path class="st1" d="M14.5,9C14.8,9,15,8.8,15,8.5S14.8,8,14.5,8S14,8.2,14,8.5S14.2,9,14.5,9z"/>
<path class="st1" d="M15,10.5c0,0.3-0.2,0.5-0.5,0.5S14,10.8,14,10.5s0.2-0.5,0.5-0.5S15,10.2,15,10.5z"/>
<path class="st1" d="M14.5,13c0.3,0,0.5-0.2,0.5-0.5S14.8,12,14.5,12S14,12.2,14,12.5S14.2,13,14.5,13z"/>
<path class="st1" d="M15,14.5c0,0.3-0.2,0.5-0.5,0.5S14,14.8,14,14.5s0.2-0.5,0.5-0.5S15,14.2,15,14.5z"/>
</svg>
