<svg width="16" height="16" viewBox="0 0 16 16" fill="none" xmlns="http://www.w3.org/2000/svg">
<path d="M3 9.5C3 9.22386 3.22386 9 3.5 9H5.5C5.77614 9 6 9.22386 6 9.5C6 9.77614 5.77614 10 5.5 10H3.5C3.22386 10 3 9.77614 3 9.5Z" fill="#000001"/>
<path d="M12.5 10C12.7761 10 13 9.77614 13 9.5C13 9.22386 12.7761 9 12.5 9C12.2239 9 12 9.22386 12 9.5C12 9.77614 12.2239 10 12.5 10Z" fill="#000001"/>
<path d="M12.5 12C12.7761 12 13 11.7761 13 11.5C13 11.2239 12.7761 11 12.5 11C12.2239 11 12 11.2239 12 11.5C12 11.7761 12.2239 12 12.5 12Z" fill="#000001"/>
<path fill-rule="evenodd" clip-rule="evenodd" d="M14 6C14 2.68629 11.3137 0 8 0C4.68629 0 2 2.68629 2 6C0.895431 6 0 6.89543 0 8V14C0 15.1046 0.895431 16 2 16H14C15.1046 16 16 15.1046 16 14V8C16 6.89543 15.1046 6 14 6ZM2 7C1.44772 7 1 7.44772 1 8V14C1 14.5523 1.44772 15 2 15H14C14.5523 15 15 14.5523 15 14V8C15 7.44772 14.5523 7 14 7H2ZM10 6H13C13 3.23858 10.7614 1 8 1C5.23858 1 3 3.23858 3 6H6C6 4.89543 6.89543 4 8 4C9.10457 4 10 4.89543 10 6ZM9 6C9 5.44772 8.55228 5 8 5C7.44772 5 7 5.44772 7 6H9Z" fill="#000001"/>
</svg>
