<?xml version="1.0" encoding="utf-8"?>
<!-- Generator: Adobe Illustrator 27.7.0, SVG Export Plug-In . SVG Version: 6.00 Build 0)  -->
<svg version="1.1" id="Layer_1" xmlns="http://www.w3.org/2000/svg" xmlns:xlink="http://www.w3.org/1999/xlink" x="0px" y="0px"
	 viewBox="0 0 16 16" style="enable-background:new 0 0 16 16;" xml:space="preserve">
<style type="text/css">
	.st0{fill-rule:evenodd;clip-rule:evenodd;fill:#FFFFFF;}
</style>
<path class="st0" d="M6,2C5.4,2,5,2.7,5.4,3.2c0.7,1,1.3,2,1.8,3.1l0.6,1.4l1.1-1.8C9.8,4.1,8.5,2,6.6,2H6z M6.9,8.3L6.2,6.7
	c-0.4-1-1-2-1.6-2.9C3.7,2.7,4.5,1,6,1h0.6C9.3,1,11,4,9.6,6.4L8.4,8.4l1.7,0.2c1.1,0.1,2.2,0.1,3.3,0c1.5-0.2,2.5,1.4,1.8,2.6
	l-0.3,0.5c-1.4,2.4-4.8,2.4-6.2,0l-1.2-2l-1,1.3C5.9,12,5.3,13,4.9,14c-0.5,1.3-2.4,1.5-3.1,0.2l-0.3-0.5c-1.4-2.4,0.4-5.3,3.1-5.3
	H6.9z M8.6,9.4l1.5,0.2c1.2,0.2,2.4,0.2,3.5,0c0.6-0.1,1.1,0.6,0.8,1.2l-0.3,0.5c-1,1.7-3.5,1.7-4.5,0L8.6,9.4z M6.6,9.3l-0.9,1.2
	c-0.7,1-1.3,2-1.8,3.1c-0.2,0.6-1,0.6-1.3,0.1l-0.3-0.5c-1-1.7,0.3-3.8,2.2-3.8H6.6z"/>
</svg>
