<svg width="16" height="16" viewBox="0 0 16 16" fill="none" xmlns="http://www.w3.org/2000/svg">
<path fill-rule="evenodd" clip-rule="evenodd" d="M5.99546 2C5.37281 2 5.01775 2.71123 5.39197 3.20887C6.11285 4.1675 6.7065 5.21549 7.1581 6.32666L7.71111 7.68735L8.77334 5.85001C9.76225 4.13947 8.52785 2 6.55202 2H5.99546ZM6.88967 8.32215L6.2317 6.70317C5.81262 5.67201 5.26172 4.69949 4.59275 3.80989C3.72291 2.65317 4.54818 1 5.99546 1H6.55202C9.29791 1 11.0134 3.97331 9.63906 6.35052L8.44153 8.4219L10.1912 8.64654C11.2767 8.78591 12.3755 8.78839 13.4616 8.65393C14.9135 8.47421 15.9456 10.0315 15.2145 11.2986L14.9442 11.767C13.5611 14.164 10.0986 14.1553 8.72762 11.7514L7.57358 9.72793L6.55073 11.0778C5.87292 11.9723 5.31708 12.953 4.8978 13.994C4.35626 15.3387 2.5018 15.4644 1.78365 14.2052L1.47436 13.6629C0.116463 11.282 1.83579 8.32215 4.57671 8.32215H6.88967ZM8.56389 9.44582L10.0638 9.6384C11.2324 9.78843 12.4152 9.7911 13.5845 9.64636C14.2172 9.56804 14.6669 10.2467 14.3483 10.7988L14.078 11.2672C13.0809 12.9953 10.5847 12.989 9.59627 11.256L8.56389 9.44582ZM6.62639 9.32215L5.7537 10.4739C5.02235 11.439 4.4226 12.4972 3.97021 13.6204C3.74103 14.1895 2.95622 14.2427 2.6523 13.7098L2.34302 13.1675C1.36534 11.4533 2.60325 9.32215 4.57671 9.32215H6.62639Z" fill="#000001"/>
</svg>
