<?xml version="1.0" encoding="utf-8"?>
<!-- Generator: Adobe Illustrator 27.7.0, SVG Export Plug-In . SVG Version: 6.00 Build 0)  -->
<svg version="1.1" id="Layer_1" xmlns="http://www.w3.org/2000/svg" xmlns:xlink="http://www.w3.org/1999/xlink" x="0px" y="0px"
	 viewBox="0 0 16 16" style="enable-background:new 0 0 16 16;" xml:space="preserve">
<style type="text/css">
	.st0{fill:#FFFFFF;}
	.st1{fill-rule:evenodd;clip-rule:evenodd;fill:#FFFFFF;}
</style>
<path class="st0" d="M2,5h12V4H2V5z"/>
<path class="st1" d="M2,1C0.9,1,0,1.9,0,3v6h16V3c0-1.1-0.9-2-2-2H2z M14,2H2C1.4,2,1,2.4,1,3v5h14V3C15,2.4,14.6,2,14,2z"/>
<path class="st0" d="M0.3,15V9.6h1.2v2h1.1v-2h1.2V15H2.6v-2.2H1.5V15H0.3z"/>
<path class="st1" d="M4.2,15V9.6h1.6c0.4,0,0.8,0.1,1.1,0.3c0.3,0.2,0.5,0.5,0.7,0.9c0.2,0.4,0.2,0.8,0.2,1.4c0,0.6-0.1,1.1-0.3,1.5
	c-0.2,0.4-0.4,0.7-0.8,1C6.5,14.9,6.2,15,5.8,15H4.2z M5.7,13.9c0.3,0,0.6-0.1,0.7-0.4c0.2-0.3,0.2-0.7,0.2-1.2c0-0.4,0-0.7-0.1-0.9
	c-0.1-0.2-0.2-0.4-0.3-0.5c-0.1-0.1-0.3-0.2-0.5-0.2H5.4v3.2H5.7z"/>
<path class="st0" d="M8.1,9.6V15h1l0-1.2c0-0.1,0-0.2,0-0.4s0-0.4,0-0.6c0-0.2,0-0.5,0-0.7c0-0.2,0-0.5,0-0.7c0-0.2,0-0.4,0-0.6
	c0-0.2,0-0.2,0-0.3H9l0.4,3.1h1.2l0.4-3.1h0.1c0,0,0,0.1,0,0.3c0,0.1,0,0.3,0,0.5c0,0.2,0,0.5-0.1,0.7c0,0.2,0,0.5,0,0.7
	c0,0.2,0,0.4,0,0.6c0,0.2,0,0.3,0,0.4l0,1.2h1V9.6h-1.6L10,12.8h0L9.7,9.6H8.1z"/>
<path class="st0" d="M12.4,15v-0.9l1-0.1v-3.4l-1-0.1V9.6h3.1v0.9l-0.9,0.1V14l0.9,0.1V15H12.4z"/>
</svg>
