<svg width="16" height="16" viewBox="0 0 16 16" fill="none" xmlns="http://www.w3.org/2000/svg">
<path d="M2 5H14V4H2V5Z" fill="#000001"/>
<path fill-rule="evenodd" clip-rule="evenodd" d="M2 1C0.895431 1 0 1.89543 0 3V9H16V3C16 1.89543 15.1046 1 14 1H2ZM14 2H2C1.44772 2 1 2.44772 1 3V8H15V3C15 2.44772 14.5523 2 14 2Z" fill="#000001"/>
<path d="M0.263672 15V9.64502H1.47118V11.6925H2.59618V9.64502H3.79617V15H2.59618V12.765H1.47118V15H0.263672Z" fill="#000001"/>
<path fill-rule="evenodd" clip-rule="evenodd" d="M4.24072 15V9.64502H5.79323C6.23823 9.64502 6.61323 9.75002 6.91823 9.96002C7.22823 10.165 7.46323 10.4575 7.62323 10.8375C7.78823 11.2175 7.87073 11.675 7.87073 12.21C7.87073 12.795 7.77822 13.2975 7.59322 13.7175C7.41322 14.1325 7.16322 14.45 6.84322 14.67C6.52822 14.89 6.16572 15 5.75572 15H4.24072ZM5.66573 13.9425C6.00573 13.9425 6.25322 13.795 6.40822 13.5C6.56822 13.205 6.64822 12.8075 6.64822 12.3075C6.64822 11.9425 6.61323 11.6425 6.54323 11.4075C6.47323 11.1725 6.37072 10.9975 6.23572 10.8825C6.10072 10.7625 5.93072 10.7025 5.72572 10.7025H5.41823V13.9425H5.66573Z" fill="#000001"/>
<path d="M8.12027 9.64502V15H9.15527L9.14027 13.815C9.14027 13.745 9.13527 13.6225 9.12527 13.4475C9.11527 13.2725 9.10277 13.07 9.08777 12.84C9.07277 12.605 9.05777 12.365 9.04277 12.12C9.02777 11.875 9.01277 11.6425 8.99777 11.4225C8.98277 11.2025 8.97027 11.0175 8.96027 10.8675C8.95027 10.7175 8.94527 10.6275 8.94527 10.5975H9.00528L9.41028 13.725H10.5953L11.0003 10.5975H11.0603C11.0603 10.6275 11.0528 10.7175 11.0378 10.8675C11.0278 11.0125 11.0128 11.195 10.9928 11.415C10.9778 11.635 10.9603 11.87 10.9403 12.12C10.9253 12.365 10.9103 12.605 10.8953 12.84C10.8803 13.07 10.8653 13.2725 10.8503 13.4475C10.8403 13.6225 10.8353 13.7425 10.8353 13.8075L10.8278 15H11.8478V9.64502H10.2578L10.0178 12.795H9.99527L9.73277 9.64502H8.12027Z" fill="#000001"/>
<path d="M12.4198 15V14.115L13.3873 14.0025V10.6425L12.4198 10.53V9.64502H15.5023V10.53L14.5648 10.6425V14.0025L15.5023 14.115V15H12.4198Z" fill="#000001"/>
</svg>
