<?xml version="1.0" encoding="utf-8"?>
<!-- Generator: Adobe Illustrator 27.3.1, SVG Export Plug-In . SVG Version: 6.00 Build 0)  -->
<svg version="1.1" id="Layer_1" xmlns="http://www.w3.org/2000/svg" xmlns:xlink="http://www.w3.org/1999/xlink" x="0px" y="0px"
	 viewBox="0 0 16 16" style="enable-background:new 0 0 16 16;" xml:space="preserve">
<style type="text/css">
	.st0{fill:#FFFFFF;}
	.st1{fill-rule:evenodd;clip-rule:evenodd;fill:#FFFFFF;}
</style>
<path class="st0" d="M13,4c0.6,0,1-0.4,1-1s-0.4-1-1-1s-1,0.4-1,1S12.4,4,13,4z"/>
<path class="st0" d="M14,8c0,0.6-0.4,1-1,1s-1-0.4-1-1c0-0.6,0.4-1,1-1S14,7.4,14,8z"/>
<path class="st0" d="M13,14c0.6,0,1-0.4,1-1s-0.4-1-1-1s-1,0.4-1,1S12.4,14,13,14z"/>
<path class="st1" d="M0.7,5.5C0.3,5.1,0,4.6,0,4V2c0-1.1,0.9-2,2-2h12c1.1,0,2,0.9,2,2v2c0,0.6-0.3,1.1-0.7,1.5
	C15.7,5.9,16,6.4,16,7v2c0,0.6-0.3,1.1-0.7,1.5c0.4,0.4,0.7,0.9,0.7,1.5v2c0,1.1-0.9,2-2,2H2c-1.1,0-2-0.9-2-2v-2
	c0-0.6,0.3-1.1,0.7-1.5C0.3,10.1,0,9.6,0,9V7C0,6.4,0.3,5.9,0.7,5.5z M2,1h12c0.6,0,1,0.4,1,1v2c0,0.6-0.4,1-1,1H2C1.4,5,1,4.6,1,4
	V2C1,1.4,1.4,1,2,1z M15,9c0,0.6-0.4,1-1,1H2c-0.6,0-1-0.4-1-1V7c0-0.6,0.4-1,1-1h12c0.6,0,1,0.4,1,1V9z M1,12c0-0.6,0.4-1,1-1h12
	c0.6,0,1,0.4,1,1v2c0,0.6-0.4,1-1,1H2c-0.6,0-1-0.4-1-1V12z"/>
</svg>
