<svg width="16" height="16" viewBox="0 0 16 16" fill="none" xmlns="http://www.w3.org/2000/svg">
<path fill-rule="evenodd" clip-rule="evenodd" d="M5.5 12.4759C5.19392 12.249 4.90071 11.9969 4.62322 11.7194L4.28063 11.3768C1.23979 8.33593 1.23979 3.40575 4.28063 0.364901C4.76717 -0.121634 5.556 -0.121634 6.04253 0.364901L10.4853 4.80763L11.7929 3.5L11.1464 2.85355C10.9512 2.65829 10.9512 2.34171 11.1464 2.14645C11.3417 1.95118 11.6583 1.95118 11.8536 2.14645L13.8536 4.14645C14.0488 4.34171 14.0488 4.65829 13.8536 4.85355C13.6583 5.04882 13.3417 5.04882 13.1464 4.85355L12.5 4.2071L11.1924 5.51474L15.6351 9.95747C16.1216 10.444 16.1216 11.2328 15.6351 11.7194C13.1407 14.2138 9.37485 14.662 6.42352 13.064C6.44895 13.0778 6.47445 13.0914 6.5 13.1049V15H10.5C10.7761 15 11 15.2239 11 15.5C11 15.7762 10.7761 16 10.5 16H1.5C1.22386 16 1 15.7762 1 15.5C1 15.2239 1.22386 15 1.5 15H5.5V12.4759ZM5.33033 11.0123L4.98774 10.6697C2.33742 8.01935 2.33742 3.72233 4.98774 1.07201C5.08375 0.975997 5.23942 0.975995 5.33543 1.07201L14.928 10.6646C15.024 10.7606 15.024 10.9162 14.928 11.0123C12.2777 13.6626 7.98065 13.6626 5.33033 11.0123Z" fill="#000001"/>
</svg>
