<svg width="16" height="16" viewBox="0 0 16 16" fill="none" xmlns="http://www.w3.org/2000/svg">
<path d="M8.62896 0.5C8.62896 0.223858 8.40511 0 8.12896 0C7.85282 0 7.62896 0.223858 7.62896 0.5V2.29289L6.48251 1.14645C6.28725 0.951184 5.97068 0.951184 5.77542 1.14645C5.58015 1.34171 5.58015 1.65829 5.77542 1.85355L7.62896 3.70711V7.13501L4.66198 5.42202L3.98309 2.88832C3.91162 2.62159 3.63744 2.4633 3.37071 2.53477C3.10397 2.60624 2.94569 2.8804 3.01716 3.14714L3.43724 4.71492L1.88331 3.81775C1.64417 3.67968 1.33837 3.76161 1.2003 4.00076C1.06223 4.23991 1.14417 4.5457 1.38331 4.68377L2.93508 5.57969L1.37071 5.99887C1.10397 6.07034 0.945691 6.34451 1.01716 6.61124C1.08863 6.87797 1.36279 7.03626 1.62953 6.96479L4.15983 6.2868L7.12786 8.0004L4.16099 9.71331L1.62953 9.03501C1.36279 8.96354 1.08863 9.12183 1.01716 9.38857C0.945691 9.6553 1.10397 9.92947 1.37071 10.0009L2.93624 10.4204L1.3833 11.317C1.14415 11.4551 1.06223 11.7609 1.2003 12C1.33837 12.2392 1.64415 12.3211 1.8833 12.183L3.43693 11.2861L3.01716 12.8527C2.94569 13.1194 3.10397 13.3936 3.37071 13.465C3.63744 13.5365 3.91162 13.3782 3.98309 13.1115L4.66168 10.5789L7.62896 8.86578V12.2929L5.77542 14.1464C5.58015 14.3417 5.58015 14.6583 5.77542 14.8536C5.97068 15.0488 6.28725 15.0488 6.48251 14.8536L7.62896 13.7071V15.5C7.62896 15.7761 7.85282 16 8.12896 16C8.40511 16 8.62896 15.7761 8.62896 15.5V13.7071L9.77542 14.8536C9.97068 15.0488 10.2872 15.0488 10.4825 14.8536C10.6778 14.6583 10.6778 14.3417 10.4825 14.1464L8.62896 12.2929V8.86706L11.5975 10.5809L12.2755 13.1112C12.347 13.378 12.6211 13.5363 12.8879 13.4648C13.1546 13.3933 13.3129 13.1192 13.2414 12.8524L12.8222 11.288L14.3737 12.1838C14.6128 12.3218 14.9186 12.2399 15.0567 12.0008C15.1948 11.7616 15.1128 11.4558 14.8737 11.3177L13.3201 10.4208L14.8879 10.0007C15.1546 9.92922 15.3129 9.65505 15.2414 9.38832C15.1699 9.12159 14.8958 8.9633 14.629 9.03477L12.0953 9.71367L9.12786 8.0004L12.0965 6.28645L14.629 6.96504C14.8958 7.03651 15.1699 6.87822 15.2414 6.61148C15.3129 6.34475 15.1546 6.07058 14.8879 5.99911L13.3213 5.57934L14.8737 4.68304C15.1128 4.54497 15.1948 4.23918 15.0567 4.00003C14.9186 3.76089 14.6128 3.67895 14.3737 3.81702L12.8219 4.71292L13.2414 3.14738C13.3129 2.88065 13.1546 2.60648 12.8879 2.53501C12.6211 2.46354 12.347 2.62183 12.2755 2.88857L11.5972 5.42003L8.62896 7.13373V3.70711L10.4825 1.85355C10.6778 1.65829 10.6778 1.34171 10.4825 1.14645C10.2872 0.951184 9.97068 0.951184 9.77542 1.14645L8.62896 2.29289V0.5Z" fill="#000001"/>
</svg>
