<?xml version="1.0" encoding="utf-8"?>
<!-- Generator: Adobe Illustrator 27.3.1, SVG Export Plug-In . SVG Version: 6.00 Build 0)  -->
<svg version="1.1" id="Layer_1" xmlns="http://www.w3.org/2000/svg" xmlns:xlink="http://www.w3.org/1999/xlink" x="0px" y="0px"
	 viewBox="0 0 16 16" style="enable-background:new 0 0 16 16;" xml:space="preserve">
<style type="text/css">
	.st0{fill:#FFFFFF;}
</style>
<path class="st0" d="M8.6,0.5C8.6,0.2,8.4,0,8.1,0C7.9,0,7.6,0.2,7.6,0.5v1.8L6.5,1.1C6.3,1,6,1,5.8,1.1c-0.2,0.2-0.2,0.5,0,0.7
	l1.9,1.9v3.4l-3-1.7L4,2.9C3.9,2.6,3.6,2.5,3.4,2.5C3.1,2.6,2.9,2.9,3,3.1l0.4,1.6L1.9,3.8C1.6,3.7,1.3,3.8,1.2,4S1.1,4.5,1.4,4.7
	l1.6,0.9L1.4,6C1.1,6.1,0.9,6.3,1,6.6C1.1,6.9,1.4,7,1.6,7l2.5-0.7l3,1.7l-3,1.7L1.6,9C1.4,9,1.1,9.1,1,9.4C0.9,9.7,1.1,9.9,1.4,10
	l1.6,0.4l-1.6,0.9c-0.2,0.1-0.3,0.4-0.2,0.7c0.1,0.2,0.4,0.3,0.7,0.2l1.6-0.9L3,12.9c-0.1,0.3,0.1,0.5,0.4,0.6
	c0.3,0.1,0.5-0.1,0.6-0.4l0.7-2.5l3-1.7v3.4l-1.9,1.9c-0.2,0.2-0.2,0.5,0,0.7C6,15,6.3,15,6.5,14.9l1.1-1.1v1.8
	c0,0.3,0.2,0.5,0.5,0.5c0.3,0,0.5-0.2,0.5-0.5v-1.8l1.1,1.1c0.2,0.2,0.5,0.2,0.7,0c0.2-0.2,0.2-0.5,0-0.7l-1.9-1.9V8.9l3,1.7
	l0.7,2.5c0.1,0.3,0.3,0.4,0.6,0.4c0.3-0.1,0.4-0.3,0.4-0.6l-0.4-1.6l1.6,0.9c0.2,0.1,0.5,0.1,0.7-0.2c0.1-0.2,0.1-0.5-0.2-0.7
	l-1.6-0.9l1.6-0.4c0.3-0.1,0.4-0.3,0.4-0.6S14.9,9,14.6,9l-2.5,0.7L9.1,8l3-1.7L14.6,7c0.3,0.1,0.5-0.1,0.6-0.4
	c0.1-0.3-0.1-0.5-0.4-0.6l-1.6-0.4l1.6-0.9c0.2-0.1,0.3-0.4,0.2-0.7c-0.1-0.2-0.4-0.3-0.7-0.2l-1.6,0.9l0.4-1.6
	c0.1-0.3-0.1-0.5-0.4-0.6c-0.3-0.1-0.5,0.1-0.6,0.4l-0.7,2.5l-3,1.7V3.7l1.9-1.9c0.2-0.2,0.2-0.5,0-0.7C10.3,1,10,1,9.8,1.1L8.6,2.3
	V0.5z"/>
</svg>
