<?xml version="1.0" encoding="utf-8"?>
<!-- Generator: Adobe Illustrator 27.7.0, SVG Export Plug-In . SVG Version: 6.00 Build 0)  -->
<svg version="1.1" id="Layer_1" xmlns="http://www.w3.org/2000/svg" xmlns:xlink="http://www.w3.org/1999/xlink" x="0px" y="0px"
	 viewBox="0 0 16 16" style="enable-background:new 0 0 16 16;" xml:space="preserve">
<style type="text/css">
	.st0{fill:#FFFFFF;}
	.st1{fill-rule:evenodd;clip-rule:evenodd;fill:#FFFFFF;}
</style>
<path class="st0" d="M8,11.5c0.6,0,1-0.4,1-1c0-0.6-0.4-1-1-1c-0.6,0-1,0.4-1,1C7,11.1,7.4,11.5,8,11.5z"/>
<path class="st1" d="M12,10.5c0,2.2-1.8,4-4,4c-2.2,0-4-1.8-4-4c0-2.2,1.8-4,4-4C10.2,6.5,12,8.3,12,10.5z M11,10.5c0,1.7-1.3,3-3,3
	s-3-1.3-3-3c0-1.7,1.3-3,3-3S11,8.8,11,10.5z"/>
<path class="st1" d="M8,5.5c1.1,0,2-0.9,2-2s-0.9-2-2-2s-2,0.9-2,2S6.9,5.5,8,5.5z M8,4.5c0.6,0,1-0.4,1-1s-0.4-1-1-1s-1,0.4-1,1
	S7.4,4.5,8,4.5z"/>
<path class="st1" d="M2,2c0-1.1,0.9-2,2-2h8c1.1,0,2,0.9,2,2v12c0,1.1-0.9,2-2,2H4c-1.1,0-2-0.9-2-2V2z M4,1h8c0.6,0,1,0.4,1,1v12
	c0,0.6-0.4,1-1,1H4c-0.6,0-1-0.4-1-1V2C3,1.4,3.4,1,4,1z"/>
</svg>
