<svg width="16" height="16" viewBox="0 0 16 16" fill="none" xmlns="http://www.w3.org/2000/svg">
<path fill-rule="evenodd" clip-rule="evenodd" d="M12 8C12 10.2091 10.2091 12 8 12C5.79086 12 4 10.2091 4 8C4 5.79086 5.79086 4 8 4C10.2091 4 12 5.79086 12 8ZM11 8C11 9.65685 9.65685 11 8 11C6.34315 11 5 9.65685 5 8C5 6.34315 6.34315 5 8 5C9.65685 5 11 6.34315 11 8Z" fill="#000001"/>
<path d="M8 14C8.27614 14 8.5 13.7761 8.5 13.5C8.5 13.2239 8.27614 13 8 13C7.72386 13 7.5 13.2239 7.5 13.5C7.5 13.7761 7.72386 14 8 14Z" fill="#000001"/>
<path d="M11 12.75C11 13.0261 10.7761 13.25 10.5 13.25C10.2239 13.25 10 13.0261 10 12.75C10 12.4739 10.2239 12.25 10.5 12.25C10.7761 12.25 11 12.4739 11 12.75Z" fill="#000001"/>
<path d="M5.5 13.25C5.77614 13.25 6 13.0261 6 12.75C6 12.4739 5.77614 12.25 5.5 12.25C5.22386 12.25 5 12.4739 5 12.75C5 13.0261 5.22386 13.25 5.5 13.25Z" fill="#000001"/>
<path fill-rule="evenodd" clip-rule="evenodd" d="M8 16C12.4183 16 16 12.4183 16 8C16 3.58172 12.4183 0 8 0C3.58172 0 0 3.58172 0 8C0 12.4183 3.58172 16 8 16ZM8 15C11.6979 15 14.726 12.1326 14.9824 8.5H13.5C13.2239 8.5 13 8.27614 13 8C13 6.45546 12.4927 5.21449 11.6391 4.36091C10.7855 3.50733 9.54454 3 8 3C6.45546 3 5.2145 3.50733 4.36092 4.36091C3.50734 5.21449 3 6.45546 3 8C3 8.27614 2.77614 8.5 2.5 8.5H1.01758C1.27395 12.1326 4.30212 15 8 15ZM8 1C11.6979 1 14.726 3.86736 14.9824 7.5H13.984C13.8836 5.9464 13.3121 4.61972 12.3462 3.6538C11.2782 2.58581 9.76916 2 8 2C6.23084 2 4.7218 2.58581 3.65381 3.6538C2.68789 4.61972 2.11638 5.9464 2.01596 7.5H1.01758C1.27395 3.86736 4.30212 1 8 1Z" fill="#000001"/>
</svg>
