<svg width="16" height="16" viewBox="0 0 16 16" fill="none" xmlns="http://www.w3.org/2000/svg">
<path d="M8 11.5C8.55229 11.5 9 11.0523 9 10.5C9 9.94771 8.55229 9.5 8 9.5C7.44772 9.5 7 9.94771 7 10.5C7 11.0523 7.44772 11.5 8 11.5Z" fill="#000001"/>
<path fill-rule="evenodd" clip-rule="evenodd" d="M12 10.5C12 12.7091 10.2091 14.5 8 14.5C5.79086 14.5 4 12.7091 4 10.5C4 8.29086 5.79086 6.5 8 6.5C10.2091 6.5 12 8.29086 12 10.5ZM11 10.5C11 12.1569 9.65685 13.5 8 13.5C6.34315 13.5 5 12.1569 5 10.5C5 8.84315 6.34315 7.5 8 7.5C9.65685 7.5 11 8.84315 11 10.5Z" fill="#000001"/>
<path fill-rule="evenodd" clip-rule="evenodd" d="M8 5.5C9.10457 5.5 10 4.60457 10 3.5C10 2.39543 9.10457 1.5 8 1.5C6.89543 1.5 6 2.39543 6 3.5C6 4.60457 6.89543 5.5 8 5.5ZM8 4.5C8.55228 4.5 9 4.05228 9 3.5C9 2.94772 8.55228 2.5 8 2.5C7.44772 2.5 7 2.94772 7 3.5C7 4.05228 7.44772 4.5 8 4.5Z" fill="#000001"/>
<path fill-rule="evenodd" clip-rule="evenodd" d="M2 2C2 0.895431 2.89543 0 4 0H12C13.1046 0 14 0.895431 14 2V14C14 15.1046 13.1046 16 12 16H4C2.89543 16 2 15.1046 2 14V2ZM4 1H12C12.5523 1 13 1.44772 13 2V14C13 14.5523 12.5523 15 12 15H4C3.44772 15 3 14.5523 3 14V2C3 1.44772 3.44772 1 4 1Z" fill="#000001"/>
</svg>
