<?xml version="1.0" encoding="utf-8"?>
<!-- Generator: Adobe Illustrator 27.3.1, SVG Export Plug-In . SVG Version: 6.00 Build 0)  -->
<svg version="1.1" id="Layer_1" xmlns="http://www.w3.org/2000/svg" xmlns:xlink="http://www.w3.org/1999/xlink" x="0px" y="0px"
	 viewBox="0 0 16 16" style="enable-background:new 0 0 16 16;" xml:space="preserve">
<style type="text/css">
	.st0{fill:#FFFFFF;}
	.st1{fill-rule:evenodd;clip-rule:evenodd;fill:#FFFFFF;}
</style>
<path class="st0" d="M8.5,0.5C8.5,0.2,8.3,0,8,0S7.5,0.2,7.5,0.5v2C7.5,2.8,7.7,3,8,3s0.5-0.2,0.5-0.5V0.5z"/>
<path class="st0" d="M5.7,3c0.1,0.2,0,0.5-0.2,0.7C5.3,3.8,5,3.7,4.8,3.5l-1-1.8C3.7,1.5,3.8,1.2,4,1.1C4.2,0.9,4.5,1,4.7,1.3L5.7,3
	z"/>
<path class="st0" d="M3.7,5.5C3.8,5.3,3.7,5,3.5,4.8l-1.8-1C1.5,3.7,1.2,3.8,1.1,4C0.9,4.2,1,4.5,1.3,4.7l1.8,1
	C3.2,5.8,3.5,5.7,3.7,5.5z"/>
<path class="st0" d="M2.5,7.5C2.8,7.5,3,7.7,3,8S2.8,8.5,2.5,8.5h-2C0.2,8.5,0,8.3,0,8s0.2-0.5,0.5-0.5H2.5z"/>
<path class="st0" d="M3.7,10.5c-0.1-0.2-0.4-0.3-0.7-0.2l-1.8,1C1,11.5,0.9,11.8,1.1,12c0.1,0.2,0.4,0.3,0.7,0.2l1.8-1
	C3.7,11,3.8,10.7,3.7,10.5z"/>
<path class="st0" d="M4.8,12.5c0.1-0.2,0.4-0.3,0.7-0.2c0.2,0.1,0.3,0.4,0.2,0.7l-1,1.8C4.5,15,4.2,15.1,4,14.9
	c-0.2-0.1-0.3-0.4-0.2-0.7L4.8,12.5z"/>
<path class="st0" d="M8,13c-0.3,0-0.5,0.2-0.5,0.5v2C7.5,15.8,7.7,16,8,16s0.5-0.2,0.5-0.5v-2C8.5,13.2,8.3,13,8,13z"/>
<path class="st0" d="M10.3,13c-0.1-0.2,0-0.5,0.2-0.7c0.2-0.1,0.5-0.1,0.7,0.2l1,1.8c0.1,0.2,0.1,0.5-0.2,0.7
	c-0.2,0.1-0.5,0.1-0.7-0.2L10.3,13z"/>
<path class="st0" d="M12.3,10.5c-0.1,0.2-0.1,0.5,0.2,0.7l1.8,1c0.2,0.1,0.5,0.1,0.7-0.2c0.1-0.2,0.1-0.5-0.2-0.7l-1.8-1
	C12.8,10.2,12.5,10.3,12.3,10.5z"/>
<path class="st0" d="M13.5,8.5C13.2,8.5,13,8.3,13,8s0.2-0.5,0.5-0.5h2C15.8,7.5,16,7.7,16,8s-0.2,0.5-0.5,0.5H13.5z"/>
<path class="st0" d="M12.3,5.5c0.1,0.2,0.4,0.3,0.7,0.2l1.8-1C15,4.5,15.1,4.2,14.9,4c-0.1-0.2-0.4-0.3-0.7-0.2l-1.8,1
	C12.3,5,12.2,5.3,12.3,5.5z"/>
<path class="st0" d="M11.2,3.5c-0.1,0.2-0.4,0.3-0.7,0.2c-0.2-0.1-0.3-0.4-0.2-0.7l1-1.8C11.5,1,11.8,0.9,12,1.1
	c0.2,0.1,0.3,0.4,0.2,0.7L11.2,3.5z"/>
<path class="st1" d="M12,8c0,2.2-1.8,4-4,4c-2.2,0-4-1.8-4-4c0-2.2,1.8-4,4-4C10.2,4,12,5.8,12,8z M11,8c0,1.7-1.3,3-3,3S5,9.7,5,8
	s1.3-3,3-3S11,6.3,11,8z"/>
</svg>
